<svg width="24" height="24" viewBox="0 0 24 24" fill="none" xmlns="http://www.w3.org/2000/svg">
<path d="M15.021 20.5C13.0736 20.5 11.3733 19.9528 9.92006 18.8586C8.46686 17.7644 7.44924 16.3628 6.86719 14.6538H4.11719C3.90469 14.6538 3.72656 14.5819 3.58281 14.4381C3.43906 14.2943 3.36719 14.1161 3.36719 13.9035C3.36719 13.6909 3.43906 13.5128 3.58281 13.3692C3.72656 13.2256 3.90469 13.1538 4.11719 13.1538H6.54221C6.4794 12.7602 6.45215 12.3542 6.46049 11.9356C6.46882 11.517 6.49606 11.1538 6.54221 10.8461H4.11719C3.90469 10.8461 3.72656 10.7742 3.58281 10.6304C3.43906 10.4866 3.36719 10.3084 3.36719 10.0958C3.36719 9.88322 3.43906 9.70513 3.58281 9.56153C3.72656 9.41794 3.90469 9.34615 4.11719 9.34615H6.88644C7.46207 7.63718 8.47489 6.23558 9.92489 5.14135C11.3749 4.04712 13.0736 3.5 15.021 3.5C15.9535 3.5 16.8417 3.63686 17.6857 3.91058C18.5298 4.18431 19.314 4.57502 20.0383 5.0827C20.2155 5.20613 20.3105 5.36968 20.3232 5.57335C20.3358 5.777 20.2667 5.94846 20.1158 6.08773C19.9648 6.23964 19.7825 6.31877 19.5687 6.3251C19.3548 6.33143 19.1601 6.27563 18.9845 6.15768C18.4108 5.78931 17.7894 5.50427 17.1201 5.30255C16.4508 5.10083 15.7511 4.99998 15.021 4.99998C13.4825 4.99998 12.1438 5.41088 11.0047 6.23268C9.86556 7.05448 9.0319 8.0923 8.50369 9.34615H14.2133C14.4258 9.34615 14.604 9.41806 14.7477 9.56188C14.8914 9.70568 14.9633 9.88388 14.9633 10.0965C14.9633 10.3091 14.8914 10.4872 14.7477 10.6308C14.604 10.7743 14.4258 10.8461 14.2133 10.8461H8.06716C7.9941 11.2705 7.96269 11.6936 7.97294 12.1154C7.98319 12.5372 8.0146 12.8833 8.06716 13.1538H14.2133C14.4258 13.1538 14.604 13.2257 14.7477 13.3696C14.8914 13.5134 14.9633 13.6916 14.9633 13.9042C14.9633 14.1167 14.8914 14.2948 14.7477 14.4384C14.604 14.582 14.4258 14.6538 14.2133 14.6538H8.49409C9.0287 15.9077 9.86556 16.9455 11.0047 17.7673C12.1438 18.5891 13.4825 19 15.021 19C15.7527 19 16.4539 18.8968 17.1246 18.6904C17.7953 18.484 18.4153 18.1961 18.9845 17.8269C19.1601 17.709 19.3543 17.6551 19.5672 17.6654C19.78 17.6756 19.964 17.7583 20.1191 17.9134C20.2678 18.0519 20.3358 18.223 20.3232 18.4266C20.3105 18.6303 20.2155 18.7938 20.0383 18.9173C19.314 19.4249 18.5298 19.8156 17.6857 20.0894C16.8417 20.3631 15.9535 20.5 15.021 20.5Z" fill="#FF7E55"/>
</svg>
