<svg width="24" height="24" viewBox="0 0 24 24" fill="none" xmlns="http://www.w3.org/2000/svg">
<path d="M6.20385 20.5C5.83975 20.5 5.49295 20.3762 5.16345 20.1288C4.83397 19.8813 4.61731 19.5788 4.51348 19.2211C4.09681 17.7826 3.75995 16.5637 3.5029 15.5644C3.24585 14.565 3.04297 13.7035 2.89425 12.9798C2.74553 12.2561 2.64264 11.6247 2.58558 11.0856C2.52853 10.5465 2.5 10.0179 2.5 9.49998C2.5 8.10768 2.98526 6.92628 3.95578 5.95578C4.92628 4.98526 6.10768 4.5 7.49998 4.5H12.75C13.2 3.9 13.75 3.41667 14.4 3.05C15.05 2.68333 15.75 2.5 16.5 2.5C16.7756 2.5 17.0112 2.59776 17.2067 2.79328C17.4022 2.98878 17.5 3.22434 17.5 3.49998C17.5 3.56793 17.4907 3.63427 17.4721 3.699C17.4535 3.76375 17.4339 3.82818 17.4134 3.89228C17.3403 4.08843 17.2698 4.30061 17.2019 4.52883C17.1339 4.75703 17.0705 5.04678 17.0115 5.39808L19.6134 8H20.5961C20.8538 8 21.0688 8.08623 21.2413 8.25868C21.4137 8.43111 21.5 8.64617 21.5 8.90385V13.4519C21.5 13.6493 21.4439 13.825 21.3317 13.9788C21.2195 14.1327 21.0647 14.2448 20.8673 14.3153L18.7711 15.0057L17.5115 19.2096C17.391 19.6044 17.1718 19.9182 16.8538 20.1509C16.5359 20.3836 16.1743 20.5 15.7692 20.5H14.3077C13.809 20.5 13.383 20.3233 13.0298 19.9701C12.6766 19.6169 12.5 19.191 12.5 18.6923V18.5H9.49995V18.6923C9.49995 19.191 9.32334 19.6169 8.97013 19.9701C8.61693 20.3233 8.19097 20.5 7.69225 20.5H6.20385ZM6.25 19H7.69225C7.782 19 7.85573 18.9711 7.91343 18.9134C7.97113 18.8557 7.99998 18.782 7.99998 18.6923V17H14V18.6923C14 18.782 14.0288 18.8557 14.0865 18.9134C14.1442 18.9711 14.218 19 14.3077 19H15.7692C15.8397 19 15.9022 18.9807 15.9567 18.9423C16.0112 18.9038 16.0481 18.8493 16.0673 18.7788L17.55 13.85L20 13.025V9.49998H19L15.5 5.99998C15.5 5.68588 15.5224 5.36408 15.5673 5.0346C15.6122 4.7051 15.6795 4.39677 15.7692 4.1096C15.3051 4.23652 14.8849 4.47049 14.5086 4.81153C14.1323 5.15254 13.8545 5.54869 13.675 5.99998H7.49998C6.53331 5.99998 5.70831 6.34164 5.02498 7.02498C4.34164 7.70831 3.99998 8.53331 3.99998 9.49998C3.99998 10.1705 4.16857 11.3125 4.50575 12.9259C4.84292 14.5394 5.31855 16.4839 5.93265 18.7596C5.95188 18.8301 5.99196 18.8878 6.05288 18.9327C6.11378 18.9775 6.17948 19 6.25 19ZM16 10.8846C16.2448 10.8846 16.4535 10.7984 16.6259 10.6259C16.7984 10.4535 16.8846 10.2448 16.8846 9.99998C16.8846 9.75511 16.7984 9.54646 16.6259 9.37403C16.4535 9.20159 16.2448 9.11538 16 9.11538C15.7551 9.11538 15.5465 9.20159 15.374 9.37403C15.2016 9.54646 15.1154 9.75511 15.1154 9.99998C15.1154 10.2448 15.2016 10.4535 15.374 10.6259C15.5465 10.7984 15.7551 10.8846 16 10.8846ZM12.25 8.74995C12.4628 8.74995 12.641 8.67816 12.7846 8.53458C12.9282 8.39099 13 8.21279 13 7.99998C13 7.78716 12.9282 7.60896 12.7846 7.46538C12.641 7.32179 12.4628 7.25 12.25 7.25H8.74995C8.53713 7.25 8.35893 7.32179 8.21535 7.46538C8.07177 7.60896 7.99998 7.78716 7.99998 7.99998C7.99998 8.21279 8.07177 8.39099 8.21535 8.53458C8.35893 8.67816 8.53713 8.74995 8.74995 8.74995H12.25Z" fill="#FF7E55"/>
</svg>
