<svg width="24" height="24" viewBox="0 0 24 24" fill="none" xmlns="http://www.w3.org/2000/svg">
<path d="M5.61532 18.5V19.4423C5.61532 19.7361 5.51239 19.9858 5.30652 20.1915C5.10064 20.3971 4.85065 20.5 4.55655 20.5C4.26243 20.5 4.01282 20.3971 3.8077 20.1915C3.60257 19.9858 3.5 19.7361 3.5 19.4423V12.3885C3.5 12.2846 3.50673 12.1808 3.5202 12.0769C3.53367 11.9731 3.55632 11.8736 3.58815 11.7785L5.37885 6.71538C5.49868 6.35528 5.71589 6.06269 6.03048 5.83763C6.34504 5.61254 6.69706 5.5 7.08653 5.5H16.9134C17.3029 5.5 17.6549 5.61254 17.9695 5.83763C18.2841 6.06269 18.5013 6.35528 18.6211 6.71538L20.4118 11.7785C20.4436 11.8736 20.4663 11.9731 20.4797 12.0769C20.4932 12.1808 20.5 12.2846 20.5 12.3885V19.4423C20.5 19.7361 20.397 19.9858 20.1911 20.1915C19.9852 20.3971 19.7353 20.5 19.4412 20.5C19.147 20.5 18.8974 20.3971 18.6923 20.1915C18.4872 19.9858 18.3846 19.7361 18.3846 19.4423V18.5H5.61532ZM5.60765 10.577H18.3923L17.2077 7.20193C17.182 7.13781 17.1436 7.08813 17.0923 7.05288C17.041 7.01761 16.9801 6.99998 16.9096 6.99998H7.09038C7.01986 6.99998 6.95896 7.01761 6.90768 7.05288C6.85639 7.08813 6.81792 7.13781 6.79227 7.20193L5.60765 10.577ZM7.46378 15.8461C7.82764 15.8461 8.13618 15.7188 8.38938 15.4641C8.64259 15.2093 8.7692 14.9 8.7692 14.5362C8.7692 14.1723 8.64184 13.8638 8.38713 13.6106C8.13241 13.3574 7.82312 13.2308 7.45925 13.2308C7.09538 13.2308 6.78684 13.3581 6.53363 13.6128C6.28043 13.8675 6.15383 14.1768 6.15383 14.5407C6.15383 14.9046 6.28118 15.2131 6.5359 15.4663C6.79062 15.7195 7.09991 15.8461 7.46378 15.8461ZM16.5407 15.8461C16.9046 15.8461 17.2131 15.7188 17.4663 15.4641C17.7195 15.2093 17.8461 14.9 17.8461 14.5362C17.8461 14.1723 17.7188 13.8638 17.4641 13.6106C17.2093 13.3574 16.9 13.2308 16.5362 13.2308C16.1723 13.2308 15.8638 13.3581 15.6106 13.6128C15.3574 13.8675 15.2308 14.1768 15.2308 14.5407C15.2308 14.9046 15.3581 15.2131 15.6128 15.4663C15.8675 15.7195 16.1768 15.8461 16.5407 15.8461ZM4.99997 17H19V12.0769H4.99997V17Z" fill="#FF7E55"/>
</svg>
