<svg width="24" height="24" viewBox="0 0 24 24" fill="none" xmlns="http://www.w3.org/2000/svg">
<path d="M20.026 9.3757L18.9818 8.3315L19.5972 7.69113C19.6613 7.62701 19.6934 7.55489 19.6934 7.47475C19.6934 7.39462 19.6613 7.3225 19.5972 7.2584L16.7434 4.40458C16.6793 4.34048 16.6072 4.30843 16.527 4.30843C16.4469 4.30843 16.3748 4.34048 16.3107 4.40458L15.6703 5.01995L14.6011 3.95075L15.2549 3.2719C15.5934 2.93345 16.0107 2.7684 16.5068 2.77673C17.003 2.78506 17.4203 2.95845 17.7587 3.2969L20.7049 6.24305C21.0433 6.5815 21.2126 6.99464 21.2126 7.48245C21.2126 7.97027 21.0433 8.3834 20.7049 8.72185L20.026 9.3757ZM8.74724 20.6795C8.40879 21.018 7.99566 21.1872 7.50784 21.1872C7.02003 21.1872 6.60689 21.018 6.26844 20.6795L3.36077 17.7718C3.0159 17.427 2.84347 17.001 2.84347 16.494C2.84347 15.9869 3.0159 15.5609 3.36077 15.2161L3.97614 14.6007L5.04534 15.6699L4.41459 16.2853C4.35048 16.3494 4.31842 16.4215 4.31842 16.5017C4.31842 16.5818 4.35048 16.6539 4.41459 16.718L7.28379 19.5872C7.34789 19.6513 7.42001 19.6834 7.50014 19.6834C7.58028 19.6834 7.6524 19.6513 7.71652 19.5872L8.33189 18.9565L9.40109 20.0257L8.74724 20.6795ZM18.5761 13.0776L19.8568 11.7969C19.921 11.7328 19.953 11.659 19.953 11.5757C19.953 11.4924 19.921 11.4186 19.8568 11.3545L12.6473 4.14495C12.5832 4.08084 12.5094 4.04878 12.4261 4.04878C12.3428 4.04878 12.269 4.08084 12.2049 4.14495L10.9242 5.4257C10.8601 5.4898 10.828 5.56192 10.828 5.64205C10.828 5.7222 10.8601 5.79433 10.9242 5.85843L18.1434 13.0776C18.2075 13.1417 18.2796 13.1738 18.3597 13.1738C18.4399 13.1738 18.512 13.1417 18.5761 13.0776ZM11.7973 19.8565L13.078 18.5603C13.1421 18.4962 13.1742 18.4241 13.1742 18.344C13.1742 18.2638 13.1421 18.1917 13.078 18.1276L5.87419 10.9238C5.81009 10.8597 5.73798 10.8276 5.65784 10.8276C5.57771 10.8276 5.50559 10.8597 5.44147 10.9238L4.14534 12.2045C4.08123 12.2686 4.04917 12.3424 4.04917 12.4257C4.04917 12.509 4.08123 12.5828 4.14534 12.6469L11.3549 19.8565C11.419 19.9206 11.4928 19.9526 11.5761 19.9526C11.6594 19.9526 11.7332 19.9206 11.7973 19.8565ZM11.3684 14.295L14.3107 11.368L12.6338 9.69108L9.70684 12.6334L11.3684 14.295ZM12.8568 20.9103C12.512 21.2551 12.0851 21.4276 11.5761 21.4276C11.0671 21.4276 10.6402 21.2551 10.2953 20.9103L3.09152 13.7065C2.74665 13.3616 2.57422 12.9347 2.57422 12.4257C2.57422 11.9167 2.74665 11.4898 3.09152 11.145L4.37227 9.85458C4.71714 9.50971 5.14309 9.33728 5.65014 9.33728C6.15719 9.33728 6.58315 9.50971 6.92802 9.85458L8.63764 11.5642L11.58 8.62188L9.87034 6.92763C9.52548 6.58276 9.35304 6.15424 9.35304 5.64205C9.35304 5.12989 9.52548 4.70137 9.87034 4.3565L11.1607 3.06613C11.5056 2.72126 11.9315 2.54883 12.4386 2.54883C12.9456 2.54883 13.3716 2.72126 13.7165 3.06613L20.9357 10.2853C21.2805 10.6302 21.453 11.0562 21.453 11.5632C21.453 12.0703 21.2805 12.4962 20.9357 12.8411L19.6453 14.1315C19.3004 14.4763 18.8719 14.6488 18.3597 14.6488C17.8476 14.6488 17.419 14.4763 17.0742 14.1315L15.3799 12.4218L12.4376 15.3642L14.1472 17.0738C14.4921 17.4186 14.6645 17.8446 14.6645 18.3517C14.6645 18.8587 14.4921 19.2847 14.1472 19.6295L12.8568 20.9103Z" fill="#FF7E55"/>
</svg>
