<svg width="24" height="24" viewBox="0 0 24 24" fill="none" xmlns="http://www.w3.org/2000/svg">
<path d="M11.0796 8.74995C10.1501 8.74995 9.24203 8.87752 8.3555 9.13265C7.46897 9.38778 6.64108 9.76727 5.87185 10.2711L6.93145 19.7307C6.94428 19.8077 6.97794 19.8718 7.03243 19.9231C7.08693 19.9743 7.15584 20 7.23918 20H16.768C16.8513 20 16.9202 19.9743 16.9747 19.9231C17.0292 19.8718 17.0629 19.8077 17.0757 19.7307L18.1853 9.74995H17.4565C16.836 9.74995 16.2674 9.70412 15.7507 9.61245C15.234 9.52079 14.5289 9.34483 13.6353 9.08458C13.2328 8.96149 12.8151 8.87495 12.3824 8.82495C11.9497 8.77495 11.5155 8.74995 11.0796 8.74995ZM5.68915 8.65385C6.53275 8.19102 7.40872 7.84133 8.31705 7.6048C9.22538 7.36827 10.1546 7.25 11.1046 7.25C11.5981 7.25 12.0892 7.28173 12.5776 7.34518C13.0661 7.40864 13.5488 7.50704 14.0257 7.64038C14.8847 7.88013 15.5398 8.04167 15.9911 8.125C16.4424 8.20833 16.9276 8.25 17.4468 8.25H18.3526L18.8065 3.99998H5.18145L5.68915 8.65385ZM7.2238 21.5C6.752 21.5 6.34623 21.3493 6.0065 21.048C5.66675 20.7467 5.47508 20.3634 5.4315 19.898L3.7065 4.37883C3.6424 3.87243 3.78246 3.43269 4.12668 3.05963C4.47091 2.68654 4.89623 2.5 5.40263 2.5H18.5949C19.1013 2.5 19.5266 2.68654 19.8709 3.05963C20.2151 3.43269 20.3551 3.87243 20.291 4.37883L18.5757 19.898C18.5321 20.3634 18.3404 20.7467 18.0007 21.048C17.6609 21.3493 17.2552 21.5 16.7834 21.5H7.2238ZM11.0796 20H17.0757H6.93145H11.0796Z" fill="#FF7E55"/>
</svg>
