<svg width="24" height="24" viewBox="0 0 24 24" fill="none" xmlns="http://www.w3.org/2000/svg">
<path d="M12 20.5089C11.7705 20.5089 11.5471 20.466 11.3298 20.3801C11.1125 20.2942 10.9212 20.1654 10.7558 19.9936L4.2481 13.4609C3.66477 12.8776 3.22758 12.2157 2.93655 11.4753C2.64552 10.7349 2.5 9.96923 2.5 9.17821C2.5 7.60258 3.00385 6.25579 4.01155 5.13784C5.01923 4.0199 6.26666 3.46094 7.75383 3.46094C8.49613 3.46094 9.20221 3.61125 9.87208 3.91189C10.5419 4.21254 11.1391 4.63337 11.6634 5.17439L12 5.53019L12.3173 5.19361C12.8378 4.63978 13.4346 4.21254 14.1077 3.91189C14.7808 3.61125 15.4852 3.46094 16.2211 3.46094C17.7083 3.46094 18.9599 4.0199 19.9759 5.13784C20.9919 6.25579 21.5 7.59425 21.5 9.15321C21.5 9.95065 21.3519 10.7196 21.0557 11.4599C20.7596 12.2003 20.3249 12.8622 19.7519 13.4455L13.2192 19.9936C13.0474 20.1654 12.8586 20.2942 12.6529 20.3801C12.4471 20.466 12.2295 20.5089 12 20.5089ZM13 8.24939C13.1282 8.24939 13.248 8.27983 13.3596 8.34071C13.4711 8.40161 13.5589 8.4827 13.623 8.58399L15.3904 11.2494H19.5019C19.6762 10.9148 19.807 10.5712 19.8942 10.2186C19.9814 9.86602 20.0218 9.5109 20.0154 9.15321C19.9884 8.00321 19.6147 7.02212 18.8942 6.20994C18.1737 5.39775 17.2827 4.99166 16.2211 4.99166C15.6916 4.99166 15.1798 5.09647 14.6856 5.30609C14.1913 5.5157 13.7628 5.8218 13.4 6.22436L12.6096 7.07436C12.5327 7.16796 12.4404 7.23751 12.3327 7.28301C12.225 7.32853 12.1141 7.35129 12 7.35129C11.8859 7.35129 11.7734 7.32693 11.6625 7.27821C11.5516 7.2295 11.4525 7.16155 11.3654 7.07436L10.575 6.22436C10.2122 5.8218 9.78619 5.51058 9.29708 5.29071C8.80798 5.07083 8.29356 4.96089 7.75383 4.96089C6.69227 4.96089 5.80125 5.3721 5.08075 6.19454C4.36023 7.01699 3.99998 8.00321 3.99998 9.15321C3.99998 9.51731 4.041 9.87404 4.12305 10.2234C4.2051 10.5728 4.33011 10.9148 4.49808 11.2494H8.99998C9.12818 11.2494 9.24644 11.2798 9.35478 11.3407C9.46311 11.4016 9.54933 11.4827 9.61343 11.584L10.7769 13.3167L12.2904 8.77629C12.3442 8.62117 12.4346 8.49457 12.5615 8.39649C12.6884 8.29842 12.8346 8.24939 13 8.24939ZM13.2231 10.682L11.7096 15.2224C11.6557 15.3776 11.5612 15.5042 11.4259 15.6022C11.2907 15.7003 11.1404 15.7493 10.975 15.7493C10.8468 15.7493 10.7285 15.7189 10.6202 15.658C10.5118 15.5971 10.4256 15.516 10.3615 15.4147L8.5846 12.7493H5.65958L11.825 18.9244C11.8583 18.9577 11.8875 18.9785 11.9125 18.9869C11.9375 18.9952 11.9666 18.9994 12 18.9994C12.0333 18.9994 12.0625 18.9952 12.0875 18.9869C12.1125 18.9785 12.1416 18.9577 12.175 18.9244L18.325 12.7493H15C14.8718 12.7493 14.7519 12.7173 14.6404 12.6532C14.5288 12.5891 14.4359 12.5064 14.3615 12.4051L13.2231 10.682Z" fill="#FF7E55"/>
</svg>
