<svg width="24" height="24" viewBox="0 0 24 24" fill="none" xmlns="http://www.w3.org/2000/svg">
<path d="M3.02552 17.2601C2.87039 17.105 2.79699 16.9268 2.80532 16.7255C2.81366 16.5242 2.88706 16.3544 3.02552 16.2159L8.06973 11.1063C8.41461 10.755 8.84153 10.5794 9.3505 10.5794C9.85947 10.5794 10.2896 10.755 10.6409 11.1063L13.1389 13.6198C13.1966 13.6775 13.2672 13.7063 13.3505 13.7063C13.4338 13.7063 13.5076 13.6775 13.5717 13.6198L18.964 8.28706H16.7486C16.5357 8.28706 16.3575 8.21527 16.2139 8.07168C16.0704 7.9281 15.9986 7.7499 15.9986 7.53708C15.9986 7.32427 16.0704 7.14607 16.2139 7.00248C16.3575 6.8589 16.5357 6.78711 16.7486 6.78711H20.5947C20.8524 6.78711 21.0674 6.87333 21.2399 7.04576C21.4123 7.21819 21.4986 7.43325 21.4986 7.69093V11.5371C21.4986 11.7499 21.4267 11.9281 21.2831 12.0717C21.1396 12.2153 20.9614 12.2871 20.7486 12.2871C20.5357 12.2871 20.3575 12.2169 20.2139 12.0765C20.0704 11.9361 19.9986 11.7595 19.9986 11.5467V9.34088L14.6313 14.7082C14.2864 15.0531 13.8595 15.2255 13.3505 15.2255C12.8415 15.2255 12.4146 15.0531 12.0697 14.7082L9.57168 12.2101C9.51398 12.1524 9.44025 12.1236 9.3505 12.1236C9.26075 12.1236 9.18703 12.1524 9.12933 12.2101L4.07935 17.2601C3.93448 17.405 3.75884 17.4774 3.55243 17.4774C3.34603 17.4774 3.17039 17.405 3.02552 17.2601Z" fill="#FF7E55"/>
</svg>
