<svg width="24" height="24" viewBox="0 0 24 24" fill="none" xmlns="http://www.w3.org/2000/svg">
<path d="M22.5 5.3077V18.6923C22.5 19.1894 22.3229 19.6149 21.9689 19.9689C21.6149 20.3229 21.1894 20.5 20.6923 20.5H17.2499C17.0374 20.5 16.8593 20.428 16.7156 20.2842C16.5718 20.1404 16.5 19.9622 16.5 19.7496C16.5 19.537 16.5718 19.3589 16.7156 19.2154C16.8593 19.0718 17.0374 19 17.2499 19H20.6923C20.782 19 20.8557 18.9711 20.9134 18.9134C20.9711 18.8557 21 18.782 21 18.6923V5.3077C21 5.21795 20.9711 5.14423 20.9134 5.08653C20.8557 5.02883 20.782 4.99998 20.6923 4.99998H12C11.9102 4.99998 11.8365 5.02883 11.7788 5.08653C11.7211 5.14423 11.6923 5.21795 11.6923 5.3077V6.14425C11.6923 6.35675 11.6204 6.53488 11.4766 6.67863C11.3327 6.82236 11.1545 6.89423 10.942 6.89423C10.7294 6.89423 10.5513 6.82236 10.4077 6.67863C10.2641 6.53488 10.1923 6.35675 10.1923 6.14425V5.27693C10.1923 4.79093 10.367 4.37328 10.7163 4.02398C11.0656 3.67466 11.4832 3.5 11.9692 3.5H20.6923C21.1894 3.5 21.6149 3.67701 21.9689 4.03103C22.3229 4.38503 22.5 4.81058 22.5 5.3077ZM1.5 12.1788C1.5 11.884 1.56699 11.6061 1.70098 11.3452C1.83494 11.0843 2.02244 10.8718 2.26348 10.7077L6.95573 7.36348C7.12204 7.24383 7.29213 7.15783 7.466 7.10548C7.63987 7.05313 7.81752 7.02695 7.99895 7.02695C8.18038 7.02695 8.35826 7.05313 8.53258 7.10548C8.70689 7.15783 8.87743 7.24383 9.04418 7.36348L13.7365 10.7077C13.9775 10.8718 14.165 11.0843 14.299 11.3452C14.433 11.6061 14.5 11.884 14.5 12.1788V18.6923C14.5 19.1894 14.3229 19.6149 13.9689 19.9689C13.6149 20.3229 13.1894 20.5 12.6923 20.5H10.9423C10.4452 20.5 10.0196 20.3229 9.6656 19.9689C9.3116 19.6149 9.1346 19.1894 9.1346 18.6923V15.75H6.86535V18.6923C6.86535 19.1894 6.68835 19.6149 6.33435 19.9689C5.98035 20.3229 5.55479 20.5 5.05768 20.5H3.3077C2.81058 20.5 2.38503 20.3229 2.03102 19.9689C1.67702 19.6149 1.50002 19.1894 1.50002 18.6923L1.5 12.1788ZM2.99998 12.1635V18.6923C2.99998 18.782 3.02883 18.8557 3.08653 18.9134C3.14423 18.9711 3.21795 19 3.3077 19H5.05768C5.14743 19 5.22115 18.9711 5.27885 18.9134C5.33653 18.8557 5.36538 18.782 5.36538 18.6923V15.7692C5.36538 15.3474 5.51313 14.9888 5.80865 14.6933C6.10415 14.3978 6.46279 14.25 6.88458 14.25H9.11538C9.53716 14.25 9.8958 14.3978 10.1913 14.6933C10.4868 14.9888 10.6346 15.3474 10.6346 15.7692V18.6923C10.6346 18.782 10.6634 18.8557 10.7211 18.9134C10.7788 18.9711 10.8525 19 10.9423 19H12.6923C12.782 19 12.8557 18.9711 12.9134 18.9134C12.9711 18.8557 13 18.782 13 18.6923V12.1635C13 12.1122 12.9888 12.0641 12.9663 12.0192C12.9439 11.9743 12.9102 11.9359 12.8654 11.9038L8.17308 8.59423C8.12178 8.55576 8.06408 8.53653 7.99998 8.53653C7.93588 8.53653 7.87818 8.55576 7.82688 8.59423L3.1346 11.9038C3.08973 11.9359 3.05608 11.9743 3.03363 12.0192C3.01119 12.0641 2.99998 12.1122 2.99998 12.1635ZM17.5673 8.88458H18.4327C18.5532 8.88458 18.6586 8.83938 18.749 8.749C18.8394 8.65862 18.8846 8.55317 18.8846 8.43265V7.5673C18.8846 7.44678 18.8394 7.34133 18.749 7.25095C18.6586 7.16057 18.5532 7.11538 18.4327 7.11538H17.5673C17.4468 7.11538 17.3413 7.16057 17.251 7.25095C17.1606 7.34133 17.1154 7.44678 17.1154 7.5673V8.43265C17.1154 8.55317 17.1606 8.65862 17.251 8.749C17.3413 8.83938 17.4468 8.88458 17.5673 8.88458ZM17.5673 12.8846H18.4327C18.5532 12.8846 18.6586 12.8394 18.749 12.749C18.8394 12.6586 18.8846 12.5532 18.8846 12.4327V11.5673C18.8846 11.4468 18.8394 11.3413 18.749 11.251C18.6586 11.1606 18.5532 11.1154 18.4327 11.1154H17.5673C17.4468 11.1154 17.3413 11.1606 17.251 11.251C17.1606 11.3413 17.1154 11.4468 17.1154 11.5673V12.4327C17.1154 12.5532 17.1606 12.6586 17.251 12.749C17.3413 12.8394 17.4468 12.8846 17.5673 12.8846ZM17.5673 16.8846H18.4327C18.5532 16.8846 18.6586 16.8394 18.749 16.749C18.8394 16.6586 18.8846 16.5532 18.8846 16.4327V15.5673C18.8846 15.4468 18.8394 15.3413 18.749 15.251C18.6586 15.1606 18.5532 15.1154 18.4327 15.1154H17.5673C17.4468 15.1154 17.3413 15.1606 17.251 15.251C17.1606 15.3413 17.1154 15.4468 17.1154 15.5673V16.4327C17.1154 16.5532 17.1606 16.6586 17.251 16.749C17.3413 16.8394 17.4468 16.8846 17.5673 16.8846Z" fill="#FF7E55"/>
</svg>
