<svg width="24" height="24" viewBox="0 0 24 24" fill="none" xmlns="http://www.w3.org/2000/svg">
<path d="M5.00435 19.75C3.65728 19.75 2.52813 19.2947 1.6169 18.3843C0.705633 17.4739 0.25 16.3458 0.25 15C0.25 13.6666 0.713125 12.5384 1.63937 11.6154C2.56562 10.6923 3.68583 10.2308 5 10.2308C6.21282 10.2308 7.25192 10.6157 8.1173 11.3856C8.98268 12.1554 9.5064 13.1103 9.68845 14.25H10.8962L8.9231 8.74995H8C7.7875 8.74995 7.60938 8.67805 7.46565 8.53425C7.3219 8.39043 7.25003 8.21223 7.25003 7.99965C7.25003 7.78705 7.3219 7.60896 7.46565 7.46538C7.60938 7.32179 7.7875 7.25 8 7.25H11C11.2125 7.25 11.3906 7.3219 11.5343 7.4657C11.6781 7.60952 11.75 7.78772 11.75 8.0003C11.75 8.2129 11.6781 8.39099 11.5343 8.53457C11.3906 8.67816 11.2125 8.74995 11 8.74995H10.5346L11.0577 10.2308H16.4154L14.85 5.92305C14.8308 5.86535 14.7987 5.82208 14.7539 5.79323C14.709 5.76438 14.6577 5.74995 14.6 5.74995H13C12.7875 5.74995 12.6094 5.67805 12.4657 5.53425C12.3219 5.39043 12.25 5.21223 12.25 4.99965C12.25 4.78705 12.3219 4.60896 12.4657 4.46538C12.6094 4.32179 12.7875 4.25 13 4.25H14.6C14.9756 4.25 15.3146 4.35286 15.6168 4.55858C15.9191 4.76429 16.1365 5.04348 16.2692 5.39613L18.0269 10.2H19C20.3142 10.2 21.4344 10.6631 22.3606 11.5894C23.2869 12.5156 23.75 13.6358 23.75 14.95C23.75 16.2753 23.2891 17.4035 22.3673 18.3344C21.4455 19.2653 20.3231 19.7307 19 19.7307C17.8257 19.7307 16.8019 19.3541 15.9289 18.6009C15.0558 17.8477 14.5167 16.8974 14.3115 15.75H9.68845C9.5064 16.9 8.97339 17.8541 8.08943 18.6125C7.20544 19.3708 6.17708 19.75 5.00435 19.75ZM5 18.25C5.76027 18.25 6.42309 18.024 6.98848 17.5721C7.55388 17.1202 7.93337 16.5128 8.12695 15.75H6C5.7875 15.75 5.60938 15.6781 5.46565 15.5343C5.3219 15.3904 5.25003 15.2122 5.25003 14.9997C5.25003 14.7871 5.3219 14.609 5.46565 14.4654C5.60938 14.3218 5.7875 14.25 6 14.25H8.12695C7.93337 13.4769 7.55388 12.867 6.98848 12.4202C6.42309 11.9734 5.76027 11.75 5 11.75C4.07917 11.75 3.30728 12.0614 2.68435 12.6843C2.06143 13.3073 1.74998 14.0791 1.74998 15C1.74998 15.8974 2.06143 16.6634 2.68435 17.2981C3.30728 17.9327 4.07917 18.25 5 18.25ZM12.5269 14.25H14.3115C14.3821 13.8282 14.5234 13.3785 14.7356 12.9009C14.9478 12.4234 15.2475 12.0333 15.6346 11.7307H11.5846L12.5269 14.25ZM18.9997 18.25C19.9204 18.25 20.6923 17.9327 21.3154 17.2981C21.9385 16.6634 22.25 15.8961 22.25 14.9962C22.25 14.0782 21.9386 13.3077 21.3156 12.6846C20.6927 12.0615 19.9208 11.75 19 11.75C18.909 11.75 18.8314 11.7516 18.7673 11.7548C18.7032 11.758 18.632 11.7692 18.5538 11.7884L19.3096 13.8019C19.3839 13.9981 19.3778 14.1877 19.291 14.371C19.2043 14.5542 19.0617 14.6838 18.8635 14.7596C18.6673 14.8339 18.4749 14.8277 18.2864 14.741C18.0978 14.6542 17.9658 14.5117 17.8904 14.3134L17.1846 12.3153C16.7295 12.6179 16.3766 13.0057 16.126 13.4788C15.8753 13.9519 15.75 14.4589 15.75 15C15.75 15.8974 16.0614 16.6634 16.6843 17.2981C17.3071 17.9327 18.0789 18.25 18.9997 18.25Z" fill="#FF7E55"/>
</svg>
