<svg width="24" height="24" viewBox="0 0 24 24" fill="none" xmlns="http://www.w3.org/2000/svg">
<path d="M4.5 15.3077V5.99998C4.5 5.23204 4.70833 4.61763 5.125 4.15673C5.54167 3.69583 6.09776 3.34391 6.79327 3.10098C7.48877 2.85803 8.28845 2.69713 9.1923 2.61828C10.0961 2.53943 11.032 2.5 12 2.5C13.0359 2.5 14.0093 2.53943 14.9202 2.61828C15.8311 2.69713 16.6266 2.85803 17.3067 3.10098C17.9868 3.34391 18.5224 3.69583 18.9134 4.15673C19.3044 4.61763 19.5 5.23204 19.5 5.99998V15.3077C19.5 16.2012 19.1913 16.9567 18.574 17.574C17.9567 18.1913 17.2012 18.5 16.3077 18.5L17.1538 19.3461C17.3731 19.5653 17.4253 19.8125 17.3106 20.0875C17.1958 20.3625 16.9833 20.5 16.6731 20.5C16.5821 20.5 16.4952 20.4839 16.4125 20.4519C16.3298 20.4198 16.2564 20.3717 16.1923 20.3076L14.3846 18.5H9.61533L7.80762 20.3076C7.74352 20.3717 7.67013 20.4198 7.58745 20.4519C7.50475 20.4839 7.41789 20.5 7.32687 20.5C7.02687 20.5 6.81694 20.3625 6.69707 20.0875C6.57721 19.8125 6.62689 19.5653 6.84613 19.3461L7.6923 18.5C6.79872 18.5 6.04327 18.1913 5.42597 17.574C4.80866 16.9567 4.5 16.2012 4.5 15.3077ZM12 3.99998C10.1371 3.99998 8.77816 4.11697 7.92302 4.35095C7.06791 4.58492 6.51919 4.89101 6.27687 5.26923H17.7846C17.5731 4.87049 17.0372 4.55927 16.1769 4.33555C15.3167 4.11183 13.9243 3.99998 12 3.99998ZM5.99997 10.5H11.25V6.7692H5.99997V10.5ZM16.3077 12H5.99997H18H16.3077ZM12.7499 10.5H18V6.7692H12.7499V10.5ZM8.49997 15.8077C8.87561 15.8077 9.18747 15.6836 9.43555 15.4356C9.68362 15.1875 9.80765 14.8756 9.80765 14.5C9.80765 14.1243 9.68362 13.8125 9.43555 13.5644C9.18747 13.3163 8.87561 13.1923 8.49997 13.1923C8.12434 13.1923 7.81248 13.3163 7.5644 13.5644C7.31633 13.8125 7.1923 14.1243 7.1923 14.5C7.1923 14.8756 7.31633 15.1875 7.5644 15.4356C7.81248 15.6836 8.12434 15.8077 8.49997 15.8077ZM15.5 15.8077C15.8756 15.8077 16.1875 15.6836 16.4355 15.4356C16.6836 15.1875 16.8077 14.8756 16.8077 14.5C16.8077 14.1243 16.6836 13.8125 16.4355 13.5644C16.1875 13.3163 15.8756 13.1923 15.5 13.1923C15.1243 13.1923 14.8125 13.3163 14.5644 13.5644C14.3163 13.8125 14.1923 14.1243 14.1923 14.5C14.1923 14.8756 14.3163 15.1875 14.5644 15.4356C14.8125 15.6836 15.1243 15.8077 15.5 15.8077ZM7.6923 17H16.3077C16.7859 17 17.1875 16.8375 17.5125 16.5125C17.8375 16.1875 18 15.7859 18 15.3077V12H5.99997V15.3077C5.99997 15.7859 6.16247 16.1875 6.48747 16.5125C6.81247 16.8375 7.21408 17 7.6923 17ZM12 5.26923H17.7846H6.27687H12Z" fill="#FF7E55"/>
</svg>
