<svg width="24" height="24" viewBox="0 0 24 24" fill="none" xmlns="http://www.w3.org/2000/svg">
<path d="M7.25181 9.11538V2.99998C7.25181 2.78748 7.32371 2.60935 7.46751 2.4656C7.61133 2.32187 7.78953 2.25 8.00211 2.25C8.21471 2.25 8.3928 2.32187 8.53639 2.4656C8.67997 2.60935 8.75176 2.78748 8.75176 2.99998V9.11538H10.1364V2.99998C10.1364 2.78748 10.2083 2.60935 10.3521 2.4656C10.4959 2.32187 10.6741 2.25 10.8867 2.25C11.0993 2.25 11.2774 2.32187 11.421 2.4656C11.5646 2.60935 11.6364 2.78748 11.6364 2.99998V9.11538C11.6364 10.0102 11.3585 10.7804 10.8027 11.4259C10.2469 12.0714 9.5633 12.482 8.75176 12.6577V21C8.75176 21.2125 8.67986 21.3906 8.53606 21.5343C8.39225 21.6781 8.21405 21.75 8.00146 21.75C7.78886 21.75 7.61077 21.6781 7.46719 21.5344C7.3236 21.3906 7.25181 21.2125 7.25181 21V12.6577C6.44028 12.482 5.75663 12.0715 5.20086 11.426C4.64508 10.7805 4.36719 10.0103 4.36719 9.1154V2.99998C4.36719 2.78748 4.4391 2.60935 4.58291 2.4656C4.72673 2.32187 4.90493 2.25 5.11751 2.25C5.33011 2.25 5.5082 2.32187 5.65179 2.4656C5.79537 2.60935 5.86716 2.78748 5.86716 2.99998V9.11538H7.25181ZM16.8672 13.75H15.0416C14.783 13.75 14.5675 13.6633 14.3951 13.4901C14.2226 13.3169 14.1364 13.1022 14.1364 12.8461V6.99998C14.1364 5.74356 14.4999 4.63779 15.2268 3.68268C15.9537 2.72756 16.6922 2.25 17.4421 2.25C17.7229 2.25 17.9473 2.35064 18.1152 2.55193C18.2832 2.75319 18.3671 3.00575 18.3671 3.3096V21C18.3671 21.2125 18.2952 21.3906 18.1514 21.5343C18.0076 21.6781 17.8294 21.75 17.6168 21.75C17.4042 21.75 17.2261 21.6781 17.0825 21.5344C16.939 21.3906 16.8672 21.2125 16.8672 21V13.75V13.75Z" fill="#FF7E55"/>
</svg>
