<svg width="24" height="24" viewBox="0 0 24 24" fill="none" xmlns="http://www.w3.org/2000/svg">
<path d="M5.27007 18.6997L12.3201 16.1997L7.77007 11.6497L5.27007 18.6997ZM22.3412 7.2747C22.2232 7.39905 22.0851 7.46122 21.9268 7.46122C21.7684 7.46122 21.6303 7.40225 21.5123 7.2843L21.447 7.21892C21.1752 6.94712 20.845 6.81122 20.4566 6.81122C20.0681 6.81122 19.738 6.94712 19.4662 7.21892L14.4008 12.2843C14.2828 12.4022 14.1447 12.4628 13.9864 12.466C13.8281 12.4692 13.6867 12.4087 13.5623 12.2843C13.438 12.1599 13.3758 12.0202 13.3758 11.8651C13.3758 11.71 13.438 11.5702 13.5623 11.4459L18.6277 6.38047C19.129 5.87919 19.7354 5.62855 20.4469 5.62855C21.1585 5.62855 21.7649 5.87919 22.2662 6.38047L22.3412 6.45547C22.4591 6.57342 22.5181 6.70996 22.5181 6.86507C22.5181 7.02021 22.4591 7.15675 22.3412 7.2747ZM9.87777 4.3997C10.0021 4.27535 10.1419 4.21317 10.297 4.21317C10.4521 4.21317 10.5918 4.27535 10.7162 4.3997L10.9277 4.61125C11.4611 5.14458 11.7277 5.78432 11.7277 6.53047C11.7277 7.27662 11.4611 7.91636 10.9277 8.4497L10.747 8.6305C10.629 8.74843 10.4909 8.80901 10.3326 8.81222C10.1742 8.81542 10.0329 8.75485 9.90852 8.6305C9.78417 8.50613 9.72199 8.36639 9.72199 8.21127C9.72199 8.05614 9.78417 7.9164 9.90852 7.79205L10.0893 7.61127C10.3867 7.31382 10.5355 6.95356 10.5355 6.53047C10.5355 6.10739 10.3867 5.74713 10.0893 5.4497L9.87777 5.23815C9.75982 5.1202 9.69924 4.98205 9.69602 4.82372C9.69282 4.6654 9.7534 4.52406 9.87777 4.3997ZM13.7354 2.66895C13.8598 2.5446 13.9995 2.48242 14.1547 2.48242C14.3098 2.48242 14.4495 2.5446 14.5739 2.66895L15.6393 3.73432C16.147 4.24202 16.4008 4.85164 16.4008 5.56317C16.4008 6.2747 16.147 6.88432 15.6393 7.39202L12.5739 10.4574C12.4559 10.5753 12.3178 10.6359 12.1595 10.6391C12.0011 10.6423 11.8598 10.5817 11.7354 10.4574C11.6111 10.333 11.5489 10.1933 11.5489 10.0382C11.5489 9.88305 11.6111 9.74331 11.7354 9.61895L14.8008 6.55357C15.0726 6.28177 15.2085 5.95164 15.2085 5.56317C15.2085 5.1747 15.0726 4.84457 14.8008 4.57277L13.7354 3.5074C13.6175 3.38945 13.5569 3.25131 13.5537 3.09297C13.5505 2.93466 13.6111 2.79331 13.7354 2.66895ZM20.8507 14.1112C20.7264 14.2356 20.5867 14.2977 20.4315 14.2977C20.2764 14.2977 20.1367 14.2356 20.0123 14.1112L19.2354 13.3343C18.9316 13.0305 18.5598 12.8785 18.12 12.8785C17.6803 12.8785 17.3084 13.0305 17.0046 13.3343L16.2277 14.1112C16.1098 14.2292 15.9716 14.2897 15.8133 14.2929C15.655 14.2961 15.5136 14.2356 15.3893 14.1112C15.2649 13.9869 15.2027 13.8471 15.2027 13.692C15.2027 13.5369 15.2649 13.3971 15.3893 13.2728L16.1662 12.4959C16.7059 11.9561 17.3572 11.6862 18.12 11.6862C18.8828 11.6862 19.5341 11.9561 20.0738 12.4959L20.8507 13.2728C20.9687 13.3907 21.0293 13.5289 21.0325 13.6872C21.0357 13.8455 20.9751 13.9869 20.8507 14.1112ZM3.42974 19.365L6.70469 10.2593C6.78163 10.0619 6.89798 9.91127 7.05374 9.80742C7.20951 9.70357 7.37778 9.65165 7.55854 9.65165C7.67906 9.65165 7.79124 9.67184 7.89507 9.71222C7.99892 9.75261 8.09764 9.8196 8.19124 9.9132L14.0565 15.7785C14.1501 15.8721 14.2171 15.9708 14.2575 16.0747C14.2979 16.1785 14.3181 16.2907 14.3181 16.4112C14.3181 16.592 14.2662 16.7602 14.1623 16.916C14.0585 17.0718 13.9078 17.1881 13.7104 17.265L4.60474 20.54C4.42396 20.6105 4.24992 20.6214 4.08262 20.5727C3.91532 20.524 3.77141 20.4394 3.65089 20.3188C3.53038 20.1983 3.44576 20.0544 3.39704 19.8871C3.34833 19.7198 3.35923 19.5458 3.42974 19.365Z" fill="#FF7E55"/>
</svg>
