<svg width="24" height="24" viewBox="0 0 24 24" fill="none" xmlns="http://www.w3.org/2000/svg">
<path d="M7.66345 10.8171C6.78973 10.8171 6.04407 10.5083 5.42645 9.89066C4.80882 9.27304 4.5 8.52738 4.5 7.65366C4.5 6.77996 4.80882 6.03429 5.42645 5.41666C6.04407 4.79904 6.78973 4.49023 7.66345 4.49023C8.53717 4.49023 9.28283 4.79904 9.90045 5.41666C10.5181 6.03429 10.8269 6.77996 10.8269 7.65366C10.8269 8.52738 10.5181 9.27304 9.90045 9.89066C9.28283 10.5083 8.53717 10.8171 7.66345 10.8171ZM7.66287 9.31713C8.12479 9.31713 8.51762 9.15547 8.84135 8.83214C9.16507 8.50879 9.32692 8.11615 9.32692 7.65423C9.32692 7.19232 9.16525 6.7995 8.8419 6.47578C8.51857 6.15205 8.12594 5.99018 7.66403 5.99018C7.20209 5.99018 6.80927 6.15186 6.48555 6.47521C6.16183 6.79856 5.99997 7.19119 5.99997 7.65311C5.99997 8.11503 6.16165 8.50784 6.485 8.83156C6.80833 9.15528 7.20096 9.31713 7.66287 9.31713ZM16.3461 19.4998C15.4724 19.4998 14.7267 19.191 14.1091 18.5733C13.4915 17.9557 13.1827 17.2101 13.1827 16.3363C13.1827 15.4626 13.4915 14.717 14.1091 14.0993C14.7267 13.4817 15.4724 13.1729 16.3461 13.1729C17.2198 13.1729 17.9655 13.4817 18.5831 14.0993C19.2007 14.717 19.5095 15.4626 19.5095 16.3363C19.5095 17.2101 19.2007 17.9557 18.5831 18.5733C17.9655 19.191 17.2198 19.4998 16.3461 19.4998ZM16.3455 17.9998C16.8075 17.9998 17.2003 17.8381 17.524 17.5148C17.8477 17.1915 18.0096 16.7988 18.0096 16.3369C18.0096 15.875 17.8479 15.4822 17.5246 15.1584C17.2012 14.8347 16.8086 14.6729 16.3467 14.6729C15.8848 14.6729 15.4919 14.8345 15.1682 15.1579C14.8445 15.4812 14.6827 15.8738 14.6827 16.3358C14.6827 16.7977 14.8443 17.1905 15.1676 17.5142C15.491 17.838 15.8836 17.9998 16.3455 17.9998ZM5.12307 18.8767C4.98462 18.7382 4.9154 18.5637 4.9154 18.353C4.9154 18.1423 4.98462 17.9688 5.12307 17.8325L17.8519 5.10369C17.9904 4.96524 18.1628 4.89761 18.3692 4.90081C18.5756 4.90401 18.748 4.97484 18.8865 5.11331C19.0249 5.25176 19.0942 5.42633 19.0942 5.63701C19.0942 5.84769 19.0249 6.02119 18.8865 6.15751L6.15767 18.8863C6.01921 19.0248 5.84677 19.0924 5.64037 19.0892C5.43397 19.086 5.26154 19.0152 5.12307 18.8767Z" fill="#FF7E55"/>
</svg>
