<svg width="24" height="24" viewBox="0 0 24 24" fill="none" xmlns="http://www.w3.org/2000/svg">
<path d="M14.6221 18.4501L13.6663 21.0289C13.6125 21.1674 13.5231 21.2805 13.3981 21.3683C13.2731 21.4562 13.133 21.5001 12.9779 21.5001C12.7215 21.5001 12.5164 21.3946 12.3625 21.1837C12.2087 20.9728 12.1824 20.7424 12.2837 20.4924L16.1702 10.4616C16.2343 10.3232 16.3273 10.2116 16.4491 10.127C16.5708 10.0424 16.7061 10.0001 16.8548 10.0001H17.4125C17.5612 10.0001 17.6964 10.0424 17.8182 10.127C17.94 10.2116 18.033 10.3232 18.0971 10.4616L21.9836 20.5078C22.0849 20.7475 22.0612 20.9728 21.9125 21.1837C21.7638 21.3946 21.5612 21.5001 21.3048 21.5001C21.1394 21.5001 20.9968 21.4562 20.8769 21.3683C20.757 21.2805 20.6651 21.1622 20.601 21.0135L19.6452 18.4501H14.6221ZM8.98173 13.5904L4.53558 18.0308C4.39713 18.1757 4.22566 18.2507 4.02118 18.2558C3.8167 18.261 3.63689 18.186 3.48176 18.0308C3.33689 17.886 3.26446 17.7103 3.26446 17.5039C3.26446 17.2975 3.33689 17.1219 3.48176 16.977L7.92793 12.5212C7.351 11.9379 6.8026 11.2456 6.28273 10.4443C5.76285 9.64303 5.33496 8.82829 4.99908 8.00009H6.58943C6.87788 8.60521 7.22884 9.21034 7.64231 9.81549C8.05577 10.4206 8.50225 10.9713 8.98173 11.4674C9.69201 10.7507 10.3638 9.88055 10.9972 8.85682C11.6305 7.8331 12.0779 6.88086 12.3395 6.00009H2.44141C2.22857 6.00009 2.05036 5.9283 1.90678 5.78472C1.7632 5.64113 1.69141 5.46293 1.69141 5.25011C1.69141 5.0373 1.7632 4.8591 1.90678 4.71552C2.05038 4.57192 2.22859 4.50011 2.44141 4.50011H8.24906V3.63474C8.24906 3.42194 8.32085 3.24374 8.46443 3.10014C8.60801 2.95656 8.78621 2.88477 8.99903 2.88477C9.21185 2.88477 9.39005 2.95656 9.53363 3.10014C9.67721 3.24374 9.74901 3.42194 9.74901 3.63474V4.50011H15.5567C15.7695 4.50011 15.9477 4.57192 16.0913 4.71552C16.2349 4.8591 16.3067 5.0373 16.3067 5.25011C16.3067 5.46293 16.2349 5.64113 16.0913 5.78472C15.9477 5.9283 15.7695 6.00009 15.5567 6.00009H13.8587C13.5343 7.12316 13.0173 8.29719 12.3077 9.52219C11.5981 10.7472 10.8407 11.7571 10.0356 12.552L12.5029 15.0789L11.9356 16.6193L8.98173 13.5904ZM15.1029 17.1232H19.1644L17.1337 11.6674L15.1029 17.1232Z" fill="#FF7E55"/>
</svg>
