<svg width="24" height="24" viewBox="0 0 24 24" fill="none" xmlns="http://www.w3.org/2000/svg">
<path d="M6.44459 16.8319C6.14973 16.6678 5.91864 16.4464 5.75134 16.1678C5.58403 15.8891 5.50037 15.5765 5.50037 15.23V10.8916L3.50424 9.78776C3.34014 9.69417 3.21964 9.58031 3.14272 9.44618C3.0658 9.31205 3.02734 9.16301 3.02734 8.99906C3.02734 8.83512 3.0658 8.68617 3.14272 8.55221C3.21964 8.41822 3.34014 8.30444 3.50424 8.21086L11.1393 4.05086C11.2749 3.97549 11.4145 3.92018 11.5581 3.88493C11.7017 3.84966 11.8491 3.83203 12.0003 3.83203C12.1515 3.83203 12.299 3.84966 12.4426 3.88493C12.5862 3.92018 12.7259 3.97541 12.8617 4.05061L21.4849 8.74353C21.6387 8.82686 21.7567 8.93958 21.8387 9.08168C21.9208 9.22376 21.9618 9.37707 21.9618 9.54161V15.4416C21.9618 15.6541 21.8899 15.8322 21.7461 15.9759C21.6023 16.1197 21.4241 16.1916 21.2115 16.1916C20.9989 16.1916 20.8208 16.1197 20.6772 15.9759C20.5336 15.8322 20.4618 15.6541 20.4618 15.4416V9.83006L18.5003 10.8916V15.23C18.5003 15.5765 18.4167 15.8891 18.2493 16.1678C18.082 16.4464 17.851 16.6678 17.5561 16.8319L12.8638 19.3685C12.7266 19.4454 12.5862 19.5015 12.4426 19.5367C12.299 19.572 12.1515 19.5896 12.0003 19.5896C11.8491 19.5896 11.7017 19.572 11.5581 19.5367C11.4145 19.5015 11.2741 19.4454 11.1369 19.3685L6.44459 16.8319ZM11.8849 12.6416C11.9298 12.6673 11.9699 12.6801 12.0051 12.6801C12.0404 12.6801 12.0805 12.6673 12.1253 12.6416L18.8407 8.99931L12.1253 5.36663C12.0805 5.34098 12.0404 5.32816 12.0051 5.32816C11.9699 5.32816 11.9298 5.34098 11.8849 5.36663L5.15997 8.99931L11.8849 12.6416ZM11.8753 18.0704C11.9202 18.0961 11.9619 18.1089 12.0003 18.1089C12.0388 18.1089 12.0805 18.0961 12.1253 18.0704L16.8561 15.5147C16.9074 15.4826 16.9442 15.4457 16.9667 15.4041C16.9891 15.3624 17.0003 15.3095 17.0003 15.2454V11.6916L12.8792 13.955C12.742 14.032 12.5997 14.0881 12.4523 14.1233C12.3048 14.1586 12.1542 14.1762 12.0003 14.1762C11.8465 14.1762 11.6959 14.1586 11.5484 14.1233C11.401 14.0881 11.2587 14.032 11.1215 13.955L7.00034 11.6916V15.2454C7.00034 15.2967 7.01156 15.3464 7.03399 15.3945C7.05644 15.4425 7.09331 15.4826 7.14459 15.5147L11.8753 18.0704Z" fill="#FF7E55"/>
</svg>
