<svg width="35" height="31" viewBox="0 0 35 31" fill="none" xmlns="http://www.w3.org/2000/svg">
<path d="M25.9703 28.188C24.3944 28.8913 22.2295 29.255 19.4757 29.2791C16.7805 29.3026 14.1981 28.8251 11.7285 27.8468C9.31756 26.8679 7.25553 25.5929 5.54253 24.0219C1.94022 20.8123 0.121078 17.1561 0.0852747 13.0534C0.050674 9.0885 1.75457 6.26357 5.19712 4.57852C7.12285 3.66525 9.40393 3.19711 12.0405 3.1741C17.2552 3.1286 21.8976 4.6569 25.9678 7.75899C30.038 10.8611 32.0921 14.5842 32.13 18.9283C32.1682 23.3068 30.115 26.3933 25.9703 28.188Z" fill="#FFC8B6"/>
<path d="M19.5 0C28.0604 0 35 6.93957 35 15.5C35 17.9458 34.4335 20.2593 33.4246 22.3165L33.4186 22.3317C33.396 22.3834 33.3701 22.4341 33.3409 22.4833L33.2523 22.657C30.6668 27.615 25.4787 31 19.5 31C10.9396 31 4 24.0604 4 15.5C4 6.93957 10.9396 0 19.5 0ZM24.3202 3.76635L24.3303 3.83472L24.3803 4.12349C24.4403 4.45717 24.508 4.57648 24.7304 4.73015L24.9998 4.89823C25.0263 4.91405 25.057 4.93228 25.0931 4.95372C26.325 5.69168 26.8627 6.62371 26.5991 8.31022C26.3013 10.2151 25.3395 10.8421 23.5643 11.0121L22.8276 11.0732L22.6106 11.1025C22.5465 11.1135 22.4881 11.126 22.4278 11.141C22.1946 11.199 22.017 11.2864 21.8529 11.4291C21.7873 11.4862 21.7456 11.5966 21.7357 11.825L21.7352 12.051L21.7514 12.3438L21.7853 12.7124L21.8639 13.3738C22.1531 15.734 21.8832 17.0945 20.1522 18.0609C19.5439 18.4005 18.8903 18.5468 18.216 18.5124C17.2171 18.4615 16.4311 18.1204 15.2192 17.3615L14.1598 16.6933L13.387 16.2374C13.3773 16.2304 13.3745 16.2265 13.3777 16.2247C13.3057 16.2639 13.24 16.3618 13.1801 16.5523L13.1222 16.7751L13.0682 17.0672L13.0178 17.4364L12.8904 18.7317C12.7344 20.1371 12.5066 20.793 11.7722 21.4627C10.9905 22.1756 10.0048 22.4613 8.8451 22.3772C11.1024 25.8705 15.0313 28.1818 19.5 28.1818C19.8618 28.1818 20.2202 28.1667 20.5743 28.137C20.0487 27.076 19.9295 26.0028 20.2689 24.9372C20.5361 24.0983 20.9002 23.4906 21.3983 22.969L21.5268 22.8388L21.8739 22.5152C22.0698 22.3345 22.1162 22.2745 22.1586 22.1603L22.1656 22.1123L22.1682 21.9979L22.1588 21.6486C22.1193 20.6864 22.1701 20.1524 22.5157 19.4458C22.9018 18.6561 23.5877 18.0102 24.5978 17.4806C26.6061 16.4276 28.9265 17.1451 31.5826 19.3578C31.9722 18.1424 32.1818 16.8457 32.1818 15.5C32.1818 10.2024 28.9336 5.66358 24.3202 3.76635ZM25.9065 19.9764C25.3949 20.2447 25.1487 20.4766 25.0474 20.6838C24.999 20.7827 24.9744 20.8879 24.9679 21.079L24.9685 21.3546L24.9746 21.533C25.0058 22.2923 24.9887 22.6332 24.8012 23.1393C24.5761 23.7468 24.2782 24.1313 23.7851 24.5863L23.5864 24.7687C23.5254 24.8255 23.4784 24.8713 23.4365 24.9152C23.2313 25.1301 23.09 25.3659 22.9542 25.7924C22.8075 26.2531 22.9533 26.8191 23.5052 27.534C26.3962 26.5743 28.8232 24.6018 30.3688 22.0381C28.251 20.1075 26.7544 19.5319 25.9065 19.9764ZM19.5 2.81818C12.496 2.81818 6.81818 8.49601 6.81818 15.5C6.81818 16.7549 7.00044 17.9671 7.33993 19.1118L7.34263 19.1137C8.74949 19.6778 9.54709 19.6778 9.87328 19.3803C9.88618 19.3686 9.89936 19.3491 9.91276 19.3208L9.95359 19.2076L9.9955 19.0333L10.0382 18.7905L10.1033 18.2809L10.1643 17.6373C10.3539 15.5322 10.6985 14.4754 12.029 13.7502C13.111 13.1605 13.77 13.2138 15.1221 13.9843L15.6 14.2678L16.1385 14.605L16.4333 14.794C17.4153 15.4267 17.9409 15.6765 18.3594 15.6979C18.5132 15.7057 18.6405 15.6772 18.7785 15.6002C19.1307 15.4035 19.2165 15.0762 19.0957 13.9666L19.0418 13.5165C18.7625 11.2895 18.844 10.3109 20.0036 9.30253C20.5217 8.852 21.1009 8.56707 21.7471 8.40623C22.0495 8.33097 22.2861 8.29239 22.6352 8.25971L23.2726 8.21147L23.5877 8.19394L23.7017 8.17944C23.7716 8.16282 23.7852 8.1313 23.7938 8.05796L23.8147 7.87497L23.8355 7.75734L23.8687 7.60484C23.882 7.54175 23.8814 7.51656 23.8498 7.49055L23.4276 7.24141L23.3415 7.18832C22.4063 6.60352 21.8293 5.86077 21.6066 4.62237L21.4627 3.77288L21.3924 3.27496L21.3582 2.95336C20.7517 2.8643 20.1312 2.81818 19.5 2.81818Z" fill="#222222"/>
</svg>
