<svg width="77" height="79" viewBox="0 0 77 79" fill="none" xmlns="http://www.w3.org/2000/svg">
<path d="M71.3775 15.2923C73.259 19.1692 74.1998 24.482 74.1998 31.2307C74.1998 37.8359 72.8356 44.1538 70.1076 50.1846C67.3795 56.0717 63.8518 61.0974 59.5247 65.2615C50.682 74.0204 40.6634 78.4 29.469 78.4C18.6508 78.4 10.984 74.1642 6.46856 65.6922C4.02273 60.9536 2.7998 55.3538 2.7998 48.8923C2.7998 36.1128 7.08005 24.7692 15.6405 14.8615C24.201 4.95385 34.4076 0 46.2607 0C58.2078 0 66.5799 5.09742 71.3775 15.2923Z" fill="#FFC8B6"/>
<path fill-rule="evenodd" clip-rule="evenodd" d="M0.000200268 21.0348C-0.00386092 20.6544 0.0538198 20.2718 0.175531 19.9031C0.315685 19.4781 0.53507 19.089 0.816203 18.7535C1.45842 17.9849 2.36982 17.5572 3.30816 17.5052C3.38584 17.5009 3.4637 17.4991 3.54161 17.5H17.5001C19.4331 17.5 21.0001 19.067 21.0001 21C21.0001 22.933 19.4331 24.5 17.5001 24.5H14.0001L38.5 42.875L62.9999 24.5H59.4999C57.5669 24.5 55.9999 22.933 55.9999 21C55.9999 19.067 57.5669 17.5 59.4999 17.5H73.4584C73.5363 17.4991 73.6142 17.5009 73.6918 17.5052C74.1835 17.5318 74.6482 17.6598 75.0654 17.8688C75.489 18.0802 75.8753 18.3807 76.1943 18.7661C76.4637 19.0907 76.6755 19.4647 76.8142 19.8725C76.9431 20.2511 77.0041 20.6447 76.9998 21.0359V66.5C76.9998 68.433 75.4328 70 73.4998 70H3.50018C1.5672 70 0.000200268 68.433 0.000200268 66.5V21.0348ZM7.00016 28V63H69.9998V28L40.6 50.05C39.3556 50.9833 37.6444 50.9833 36.4 50.05L7.00016 28Z" fill="#222222"/>
<path d="M38.5 0C40.433 0 42 1.567 42 3.5V19.5503L46.5251 15.0251C47.8919 13.6583 50.108 13.6583 51.4748 15.0251C52.8416 16.392 52.8416 18.608 51.4748 19.9749L40.9749 30.4749C40.6393 30.8104 40.2525 31.0636 39.8397 31.2344C39.4364 31.4017 38.9951 31.4957 38.5323 31.4999H38.4677C37.5828 31.4917 36.7003 31.1501 36.0251 30.4749L25.5252 19.9749C24.1584 18.608 24.1584 16.392 25.5252 15.0251C26.892 13.6583 29.1081 13.6583 30.4749 15.0251L35 19.5503V3.5C35 1.567 36.567 0 38.5 0Z" fill="#222222"/>
</svg>
