<svg width="27" height="27" viewBox="0 0 27 27" fill="none" xmlns="http://www.w3.org/2000/svg">
<path d="M23.1304 7.90109C23.7101 8.89011 24 10.2454 24 11.967C24 13.652 23.5797 15.2637 22.7391 16.8022C21.8985 18.304 20.8115 19.5861 19.4783 20.6484C16.7536 22.8828 13.6667 24 10.2174 24C6.88405 24 4.52173 22.9194 3.13043 20.7582C2.37681 19.5494 2 18.1209 2 16.4725C2 13.2124 3.31884 10.3187 5.95652 7.79121C8.59419 5.26374 11.7391 4 15.3913 4C19.0725 4 21.6521 5.30036 23.1304 7.90109Z" fill="#FFC8B6"/>
<path d="M8.59091 10.2017C8.59091 7.49049 10.7888 5.29261 13.5 5.29261C16.2112 5.29261 18.4091 7.49049 18.4091 10.2017C18.4091 12.4891 16.8446 14.4112 14.7273 14.9561V16.3381C14.7273 17.0159 14.1778 17.5653 13.5 17.5653C12.8222 17.5653 12.2727 17.0159 12.2727 16.3381V13.8835C12.2727 13.2057 12.8222 12.6562 13.5 12.6562C14.8556 12.6562 15.9545 11.5573 15.9545 10.2017C15.9545 8.8461 14.8556 7.74716 13.5 7.74716C12.1444 7.74716 11.0455 8.8461 11.0455 10.2017C11.0455 10.8795 10.496 11.429 9.81818 11.429C9.14038 11.429 8.59091 10.8795 8.59091 10.2017Z" fill="#222222"/>
<path d="M15.0341 20.3267C15.0341 21.174 14.3472 21.8608 13.5 21.8608C12.6528 21.8608 11.9659 21.174 11.9659 20.3267C11.9659 19.4795 12.6528 18.7926 13.5 18.7926C14.3472 18.7926 15.0341 19.4795 15.0341 20.3267Z" fill="#222222"/>
<path fill-rule="evenodd" clip-rule="evenodd" d="M3.95406 3.95405C6.39576 1.51239 9.77244 0 13.5 0C17.2276 0 20.6042 1.51239 23.0459 3.95405C25.4876 6.39575 27 9.77244 27 13.5C27 17.2276 25.4876 20.6042 23.0459 23.0459C20.6042 25.4876 17.2276 27 13.5 27C9.77244 27 6.39576 25.4876 3.95406 23.0459C1.51239 20.6042 0 17.2276 0 13.5C0 9.77244 1.5124 6.39575 3.95406 3.95405ZM13.5 2.45455C10.4496 2.45455 7.68989 3.68951 5.68967 5.68969C3.68949 7.6899 2.45455 10.4496 2.45455 13.5C2.45455 16.5504 3.68951 19.3101 5.68968 21.3103C7.68989 23.3105 10.4496 24.5455 13.5 24.5455C16.5504 24.5455 19.3101 23.3105 21.3103 21.3103C23.3105 19.3101 24.5455 16.5504 24.5455 13.5C24.5455 10.4496 23.3105 7.68989 21.3103 5.68968C19.3101 3.68951 16.5504 2.45455 13.5 2.45455Z" fill="#222222"/>
</svg>
