<svg width="158" height="158" viewBox="0 0 158 158" fill="none" xmlns="http://www.w3.org/2000/svg">
<path d="M125.504 40.3008C128.408 45.5554 129.86 52.7562 129.86 61.9031C129.86 70.8555 127.755 79.4186 123.544 87.5925C119.334 95.5716 113.889 102.383 107.211 108.027C93.5636 119.899 78.1012 125.835 60.8242 125.835C44.1278 125.835 32.2952 120.093 25.3263 108.611C21.5515 102.188 19.6641 94.5986 19.6641 85.841C19.6641 68.5201 26.27 53.1455 39.4819 39.717C52.6937 26.2885 68.4463 19.5742 86.7399 19.5742C105.178 19.5742 118.1 26.4831 125.504 40.3008Z" fill="#FFC8B6"/>
<path d="M85.0475 51.0459C85.0475 47.341 82.0441 44.3376 78.3392 44.3376C74.6343 44.3376 71.6308 47.341 71.6308 51.0459C71.6308 54.7508 74.6343 57.7543 78.3392 57.7543C82.0441 57.7543 85.0475 54.7508 85.0475 51.0459Z" fill="#222222"/>
<path d="M68.9475 68.4876C68.9475 65.5237 71.3502 63.121 74.3142 63.121H79.6808C82.6448 63.121 85.0475 65.5237 85.0475 68.4876V100.688H89.0725C92.0365 100.688 94.4392 103.09 94.4392 106.054C94.4392 109.018 92.0365 111.421 89.0725 111.421H70.2891C67.3252 111.421 64.9225 109.018 64.9225 106.054C64.9225 103.09 67.3252 100.688 70.2891 100.688H74.3142V73.8543C71.3502 73.8543 68.9475 71.4516 68.9475 68.4876Z" fill="#222222"/>
<path fill-rule="evenodd" clip-rule="evenodd" d="M78.3392 20.1875C62.0391 20.1875 47.2734 26.8009 36.5962 37.478C25.9192 48.1552 19.3057 62.921 19.3057 79.221C19.3057 95.5211 25.9191 110.287 36.5962 120.964C47.2733 131.641 62.0391 138.255 78.3392 138.255C94.6392 138.255 109.405 131.641 120.082 120.964C130.759 110.287 137.373 95.5211 137.373 79.221C137.373 62.9209 130.759 48.1552 120.082 37.478C109.405 26.801 94.6392 20.1875 78.3392 20.1875ZM44.1858 45.0677C52.9324 36.3212 65.0001 30.9209 78.3392 30.9209C91.6782 30.9209 103.746 36.3212 112.492 45.0676C121.239 53.8143 126.639 65.882 126.639 79.221C126.639 92.5601 121.239 104.628 112.492 113.374C103.746 122.121 91.6782 127.521 78.3392 127.521C65.0001 127.521 52.9324 122.121 44.1858 113.374C35.4393 104.628 30.039 92.5601 30.039 79.221C30.039 65.882 35.4393 53.8143 44.1858 45.0677Z" fill="#222222"/>
</svg>
