<svg width="325" height="279" viewBox="0 0 325 279" fill="none" xmlns="http://www.w3.org/2000/svg">
<path opacity="0.88" d="M279.223 0C125.011 0 0 125.012 0 279.223C0 433.433 125.011 558.445 279.223 558.445C433.433 558.445 558.445 433.433 558.445 279.223C558.445 125.012 433.433 0 279.223 0ZM250.295 516.829C197.318 510.485 148.301 486.769 109.987 448.457C64.7823 403.252 39.8885 343.151 39.8885 279.223C39.8885 221.673 60.0731 167.233 97.0768 123.96C98.0299 135.393 100.383 147.651 99.7804 156.413C97.5789 188.356 94.4269 208.347 113.124 235.296C120.408 245.792 122.197 260.84 125.743 272.988C129.21 284.874 143.063 291.108 152.617 298.431C171.892 313.21 190.333 330.387 210.773 343.394C224.263 351.979 232.689 356.249 228.738 372.711C225.561 385.95 224.673 394.105 217.824 405.9C215.734 409.499 225.714 432.638 229.035 435.959C239.1 446.023 249.088 455.256 260.06 464.318C277.069 478.371 258.407 496.632 250.295 516.829ZM448.457 448.457C414.047 482.867 371.001 505.491 324.208 514.344C330.84 497.945 342.648 483.375 353.6 474.928C363.128 467.577 375.06 453.437 380.037 442.237C385.009 431.052 391.596 421.356 398.263 411.071C407.747 396.44 374.879 374.374 364.228 369.75C340.261 359.345 322.219 345.304 300.919 330.316C285.743 319.639 254.932 335.893 237.798 328.414C214.331 318.167 194.998 300.363 174.6 285.002C153.551 269.149 154.568 250.668 154.568 227.282C171.056 227.89 194.511 222.719 205.457 235.978C208.911 240.162 220.787 258.855 228.737 252.213C235.232 246.786 223.924 225.031 221.74 219.916C215.021 204.19 237.049 198.056 248.324 187.392C263.037 173.479 294.597 151.659 292.103 141.687C289.609 131.714 260.524 103.459 243.442 107.867C240.882 108.528 218.343 132.161 213.988 135.869C214.103 128.155 214.219 120.443 214.337 112.729C214.411 107.859 205.251 102.86 205.677 99.7187C206.751 91.7796 228.85 77.3715 234.347 71.0487C230.496 68.6418 217.353 57.3534 213.376 59.0099C203.745 63.0238 192.869 65.7891 183.238 69.8016C183.238 66.4617 182.833 63.3244 182.35 60.2262C201.744 51.6468 222.201 45.7086 243.175 42.5707L262.081 50.1688L275.43 66.0106L288.752 79.7476L300.398 83.4996L318.895 66.0549L314.125 53.6013V42.4069C350.706 47.7202 385.252 61.3672 415.507 82.4109C410.095 82.8955 404.146 83.6916 397.436 84.5454C394.664 82.9076 391.108 82.1639 388.086 81.0242C396.853 99.8744 405.998 118.464 415.289 137.065C425.213 156.934 447.229 178.246 451.095 199.22C455.651 223.942 452.49 246.398 454.982 275.484C457.383 303.493 486.561 335.318 486.561 335.318C486.561 335.318 500.035 339.908 511.24 338.309C500.795 379.633 479.381 417.53 448.457 448.457Z" fill="#FFB956" fill-opacity="0.22"/>
</svg>
