<svg width="70" height="70" viewBox="0 0 70 70" fill="none" xmlns="http://www.w3.org/2000/svg">
<path opacity="0.88" fill-rule="evenodd" clip-rule="evenodd" d="M39.1147 65.3784C55.2587 65.3784 68.346 51.056 68.346 33.3884C68.346 32.278 68.2943 31.1809 68.1935 30.0997L62.4906 38.8801C62.085 39.5046 61.1343 39.3684 60.9204 38.6552L59.4111 33.6236C43.0586 41.878 25.7844 43.3207 12.4058 42.6542C11.9694 42.6324 11.537 42.6084 11.1087 42.5824C14.718 55.7687 25.8909 65.3784 39.1147 65.3784ZM9.88493 33.7148C12.5017 34.0876 15.4488 34.4232 18.6339 34.649C27.7144 35.2929 38.5848 35.0341 49.2085 32.3027C51.9796 31.4104 54.7403 30.3292 57.4572 29.0292L53.4381 23.9514C52.9721 23.3627 53.4163 22.4992 54.1663 22.5359L66.8189 23.1567C62.9196 10.5069 51.9891 1.39844 39.1147 1.39844C22.9707 1.39844 8.44722 15.4705 9.88344 33.3884C9.88344 33.4973 9.88394 33.6061 9.88493 33.7148Z" fill="#FFB956"/>
<path fill-rule="evenodd" clip-rule="evenodd" d="M0 31.8792C1.56064 14.0141 16.5575 0 34.8277 0C50.011 0 62.9337 9.67869 67.7627 23.2029L55.4132 22.597C54.9317 21.7527 54.3322 20.9108 53.7397 20.0787C53.0345 19.0884 52.3392 18.112 51.8646 17.162C51.3336 16.0988 51.1299 15.5055 50.9425 14.9596C50.7194 14.3098 50.5194 13.7271 49.8175 12.4988C49.7358 12.3557 49.6062 12.2031 49.4734 12.0466C49.0518 11.5499 48.5974 11.0145 49.5346 10.6233C49.5962 10.5975 49.6628 10.5817 49.729 10.5733C49.8134 10.5625 49.8968 10.5518 49.9792 10.5413C50.1424 10.5204 50.3018 10.5 50.4579 10.4803C50.9439 10.4189 51.1029 9.78347 50.6876 9.5235C47.3676 7.44488 43.6792 6.0472 39.7969 5.40299C39.4815 5.35067 39.1979 5.59628 39.1979 5.91591V6.61448C39.1979 6.6786 39.2097 6.74217 39.2326 6.80205L39.6695 7.94274C39.7455 8.14124 39.6942 8.36599 39.5395 8.51182L37.7046 10.2424C37.5655 10.3736 37.366 10.4186 37.184 10.36L36.1455 10.0254C36.0637 9.99905 35.9896 9.95301 35.9298 9.89133L34.3528 8.26525L32.7656 6.38162C32.7103 6.316 32.6398 6.26494 32.5601 6.23294L30.4463 5.38345C30.3597 5.34866 30.2654 5.33749 30.1732 5.35174C27.729 5.72944 25.3418 6.41111 23.0673 7.38067C22.8489 7.47374 22.7255 7.70382 22.7549 7.93935L22.7569 7.95555C22.8026 8.32696 23.1912 8.5838 23.5432 8.45685C23.9216 8.32041 24.3085 8.19252 24.6954 8.06463C25.3376 7.85236 25.9798 7.64008 26.5829 7.38869C26.9607 7.23137 27.9985 8.00644 28.6883 8.52154L28.7106 8.53825C28.9689 8.73113 29.0099 9.10922 28.767 9.32118C28.5417 9.51778 28.2694 9.73978 27.9803 9.97548C26.9507 10.8148 25.708 11.8278 25.619 12.4859C25.5945 12.6665 25.8232 12.8963 26.0768 13.151C26.3753 13.4508 26.7083 13.7852 26.7033 14.115L26.6769 15.8544C26.6702 16.3053 27.1725 16.5273 27.4922 16.2092C27.636 16.0661 27.79 15.9121 27.9494 15.7528C28.9439 14.7588 30.145 13.5584 30.3475 13.5061C32.4864 12.9542 36.1282 16.492 36.4405 17.7407C36.6683 18.6516 34.6271 20.3518 32.791 21.8813C32.11 22.4485 31.4573 22.9922 30.9589 23.4635C30.5502 23.85 30.0288 24.189 29.5145 24.5233C28.252 25.344 27.0325 26.1367 27.6303 27.5359C27.6639 27.6147 27.7149 27.7251 27.7769 27.8593C28.2185 28.8158 29.2195 30.9839 28.5063 31.5798C27.6486 32.2965 26.4257 30.6575 25.8272 29.8553C25.7311 29.7266 25.6512 29.6195 25.5914 29.547C24.5424 28.2764 22.5759 28.3575 20.7853 28.4314C20.4352 28.4459 20.0918 28.46 19.7633 28.4638C19.4661 28.4671 19.2193 28.7051 19.2188 29.0023C19.2152 31.2522 19.2452 33.1311 20.7275 34.7789C20.0217 34.7412 19.3252 34.6977 18.639 34.649C17.6301 34.5775 16.645 34.4949 15.6868 34.4037C15.6581 34.3313 15.6325 34.2571 15.6103 34.1811C15.4901 33.7689 15.3859 33.3301 15.2798 32.8832C14.9945 31.6807 14.6952 30.4198 14.0303 29.4616C11.866 26.3421 12.0399 23.9671 12.2963 20.4659C12.3173 20.18 12.3388 19.8865 12.3596 19.5846C12.4094 18.8599 12.2978 17.9441 12.1818 16.9932C12.1728 16.9193 12.1637 16.8451 12.1547 16.7707C12.0988 16.3082 11.5121 16.1267 11.2242 16.493C7.51816 21.2101 5.33503 26.884 4.92948 32.9052C4.4559 32.8178 4.00219 32.7311 3.56938 32.6459C2.94987 32.524 2.37358 32.4051 1.84358 32.2918C1.14669 32.1428 0.529827 32.0034 0 31.8792ZM0.467451 41.453C3.51041 57.6602 17.7368 69.9234 34.8277 69.9234C54.1365 69.9234 69.7894 54.2705 69.7894 34.9617C69.7894 32.7712 69.588 30.6278 69.2026 28.549L64.2717 36.1409C64.3822 38.0823 64.3626 40.446 63.8789 42.36C62.571 47.5341 59.8897 52.2794 56.0177 56.1517C51.9408 60.2286 46.8957 62.9841 41.4012 64.2078C40.9962 64.298 40.6709 63.8977 40.8585 63.5277C41.7156 61.8371 42.9673 60.371 44.1406 59.4662C45.3335 58.5457 46.8276 56.7753 47.4507 55.373C48.0077 54.1201 48.7264 53.0165 49.4694 51.8757C49.5569 51.7413 49.6448 51.6063 49.7328 51.4705C50.9203 49.6386 46.8049 46.8758 45.4713 46.2967C42.9174 45.188 40.9008 43.7495 38.7128 42.1889C38.3298 41.9157 37.9416 41.6388 37.5443 41.3592C37.3867 41.2484 37.2158 41.1607 37.0334 41.0926C33.1159 41.8279 29.2723 42.2896 25.5709 42.5442C25.7977 42.6989 26.0264 42.8499 26.257 42.9967C26.3461 43.0534 26.4334 43.1086 26.5188 43.1625C28.0531 44.1322 28.9751 44.715 28.5065 46.6675C28.4338 46.9704 28.3707 47.2521 28.3108 47.5192C28.0431 48.7136 27.8408 49.6162 27.14 50.8231C26.8783 51.2737 28.1278 54.171 28.5437 54.5868C29.804 55.847 31.0545 57.0031 32.4283 58.1376C34.008 59.4428 33.1304 61.0379 32.1573 62.8066C31.8826 63.3058 31.6004 63.8188 31.3636 64.3431C31.2659 64.5592 31.0417 64.6935 30.8066 64.6621C24.3264 63.7983 18.3385 60.8525 13.6375 56.1517C9.7081 52.2223 7.00435 47.3939 5.7183 42.1302C3.85187 41.9312 2.0957 41.6998 0.467451 41.453Z" fill="#222222"/>
</svg>
