<svg width="40" height="41" viewBox="0 0 40 41" fill="none" xmlns="http://www.w3.org/2000/svg">
<path d="M32.0228 33.4653C30.4468 34.1686 28.282 34.5324 25.5282 34.5564C22.833 34.5799 20.2506 34.1025 17.781 33.1241C15.3701 32.1453 13.308 30.8703 11.595 29.2992C7.99271 26.0896 6.17357 22.4334 6.13776 18.3307C6.10316 14.3658 7.80706 11.5409 11.2496 9.85586C13.1753 8.9426 15.4564 8.47446 18.093 8.45145C23.3077 8.40594 27.9501 9.93424 32.0203 13.0363C36.0905 16.1384 38.1446 19.8615 38.1825 24.2056C38.2207 28.5842 36.1675 31.6707 32.0228 33.4653Z" fill="#FFC8B6"/>
<path d="M14.1449 5.36328H9.92319C6.63536 5.36328 4.27793 8.47564 5.33029 11.5946C7.43368 17.8282 10.2622 23.3506 13.9476 27.036C17.6331 30.7216 23.1555 33.5501 29.3892 35.6534C32.508 36.7058 35.6204 34.3484 35.6204 31.0605V26.8381C35.6204 25.6295 34.9654 24.516 33.9091 23.9286L30.2311 21.8838L29.9644 21.7508C29.0605 21.3493 28.0185 21.3689 27.1247 21.8159L23.7603 23.4962L23.6804 23.4713C23.5475 23.428 23.3982 23.3759 23.2348 23.3142C22.3984 22.9982 21.5604 22.557 20.7844 21.9752C20.4478 21.7228 20.1295 21.4484 19.8324 21.1513C19.5315 20.8504 19.2538 20.5278 18.9984 20.186C18.4186 19.4103 17.9777 18.5724 17.6609 17.736L17.5031 17.2901L17.4769 17.2078L19.1583 13.8485C19.6496 12.8661 19.6246 11.7044 19.0914 10.744L17.0554 7.07646C16.4683 6.0191 15.3542 5.36328 14.1449 5.36328ZM9.92319 8.69223H14.1449L16.1809 12.3597L14.2194 16.2827C14.0552 16.6111 14.0042 16.9845 14.0743 17.3449C14.3201 18.6087 14.9949 20.3901 16.3319 22.1789C16.6809 22.6458 17.0625 23.0893 17.4785 23.5052C17.8895 23.9162 18.3271 24.2935 18.7876 24.6387C20.5803 25.9827 22.366 26.6573 23.6334 26.9004C23.9924 26.9693 24.3642 26.918 24.6912 26.7545L28.6135 24.7933L32.2915 26.8381V31.0605C32.2915 32.1133 31.3726 32.8093 30.4536 32.4992C24.6647 30.546 19.541 27.9217 16.3016 24.6821C13.0621 21.4426 10.4378 16.3189 8.48452 10.5303C8.17439 9.61113 8.8704 8.69223 9.92319 8.69223Z" fill="#222222"/>
</svg>
