<svg width="91" height="81" viewBox="0 0 91 81" fill="none" xmlns="http://www.w3.org/2000/svg">
<path d="M87.9564 20.4828C89.9854 24.1545 91 29.1861 91 35.5776C91 41.8331 89.5289 47.8166 86.5868 53.5282C83.6448 59.1036 79.8404 63.8633 75.1739 67.807C65.6377 76.1022 54.8333 80.25 42.7609 80.25C31.0942 80.25 22.8261 76.2384 17.9565 68.2148C15.3188 63.7271 14 58.4237 14 52.3043C14 40.2012 18.6159 29.4581 27.8478 20.0749C37.0797 10.6916 48.0868 6 60.8696 6C73.7537 6 82.7824 10.8276 87.9564 20.4828Z" fill="#FFC8B6"/>
<path fill-rule="evenodd" clip-rule="evenodd" d="M3.33203 11.6673C3.33203 7.06493 7.06301 3.33398 11.6654 3.33398H68.332C72.9345 3.33398 76.6654 7.06496 76.6654 11.6673V68.3339C76.6654 72.9364 72.9345 76.6673 68.332 76.6673H11.6654C7.06303 76.6673 3.33203 72.9364 3.33203 68.3339V11.6673ZM59.9987 10.0007V36.6673C59.9987 38.5082 58.5063 40.0006 56.6654 40.0006H24.9987C23.1577 40.0006 21.6654 38.5082 21.6654 36.6673V10.0007H11.6654C10.7449 10.0007 9.9987 10.7468 9.9987 11.6673V68.3339C9.9987 69.2545 10.7449 70.0006 11.6654 70.0006H68.332C69.2526 70.0006 69.9987 69.2545 69.9987 68.3339V11.6673C69.9987 10.7468 69.2525 10.0007 68.332 10.0007H59.9987ZM28.332 10.0007V33.334H53.332V10.0007H28.332ZM44.9987 15.0006C46.8396 15.0006 48.332 16.493 48.332 18.334V25.0006C48.332 26.8416 46.8396 28.334 44.9987 28.334C43.1577 28.334 41.6654 26.8416 41.6654 25.0006V18.334C41.6654 16.493 43.1577 15.0006 44.9987 15.0006Z" fill="#222222"/>
</svg>
