<svg width="104" height="107" viewBox="0 0 104 107" fill="none" xmlns="http://www.w3.org/2000/svg">
<path d="M17.0677 19.4829C20.6419 16.2202 26.0145 13.7295 33.1855 12.011C40.204 10.3291 47.3126 10.3702 54.5115 12.1339C61.5576 13.9343 67.9203 16.9211 73.5991 21.0942C85.469 29.5585 93.0263 40.5602 96.2708 54.0991C99.4062 67.183 97.1274 77.5341 89.434 85.1525C85.1078 89.3172 79.512 92.2222 72.6462 93.8675C59.0669 97.1216 45.773 94.8334 32.7642 87.003C19.7555 79.1725 11.5334 68.0896 8.09807 53.7541C4.63545 39.3049 7.62537 27.8813 17.0677 19.4829Z" fill="#FFC8B6"/>
<path fill-rule="evenodd" clip-rule="evenodd" d="M14.4982 21.2638C23.4511 12.2206 35.8323 6.61914 49.5 6.61914C63.1677 6.61914 75.5489 12.2206 84.5017 21.2638L81.3197 24.4779L84.5017 21.2638C93.4545 30.3071 99 42.8134 99 56.6191C99 70.4249 93.4545 82.9311 84.5017 91.9744C75.5489 101.018 63.1677 106.619 49.5 106.619C35.8323 106.619 23.4511 101.018 14.4982 91.9744L17.6802 88.7603L14.4982 91.9744C5.54542 82.9311 0 70.4249 0 56.6191C0 42.8134 5.54542 30.3072 14.4982 21.2638L14.4982 21.2638ZM49.5 15.71C38.3151 15.71 28.1963 20.284 20.8621 27.6921C13.5281 35.1003 9 45.3213 9 56.6191C9 67.917 13.5282 78.1381 20.8622 85.5462C28.1963 92.9543 38.3151 97.5282 49.5 97.5282C60.6849 97.5282 70.8037 92.9543 78.1377 85.5462C85.4718 78.1381 90 67.917 90 56.6191C90 45.3213 85.4718 35.1002 78.1378 27.692C70.8037 20.284 60.6849 15.71 49.5 15.71ZM75.182 39.7687C76.9393 41.5438 76.9393 44.4218 75.182 46.1969L48.182 73.4696C46.4246 75.2447 43.5754 75.2447 41.818 73.4696L28.318 59.8333C26.5607 58.0582 26.5607 55.1801 28.318 53.405C30.0754 51.6299 32.9246 51.6299 34.682 53.405L45 63.8273L68.818 39.7687C70.5754 37.9935 73.4246 37.9935 75.182 39.7687Z" fill="#222222"/>
</svg>
