<svg width="50" height="50" viewBox="0 0 50 50" fill="none" xmlns="http://www.w3.org/2000/svg">
<path d="M42.3686 12.6579C43.4843 14.6741 44.0422 17.4371 44.0422 20.9468C44.0422 24.3818 43.2333 27.6675 41.6155 30.8039C39.9977 33.8655 37.9058 36.4792 35.3398 38.6447C30.0961 43.1998 24.155 45.4775 17.5166 45.4775C11.1014 45.4775 6.55491 43.2746 3.87725 38.8687C2.42686 36.4044 1.70166 33.4922 1.70166 30.1318C1.70166 23.4857 4.23987 17.5865 9.31626 12.4339C14.3926 7.28136 20.4452 4.70508 27.4742 4.70508C34.5588 4.70508 39.5235 7.35602 42.3686 12.6579Z" fill="#FFC8B6"/>
<path fill-rule="evenodd" clip-rule="evenodd" d="M24.819 6.14934C21.422 6.14934 18.6682 8.90313 18.6682 12.3001C18.6682 15.6971 21.422 18.4509 24.819 18.4509C28.2159 18.4509 30.9697 15.6971 30.9697 12.3001C30.9697 8.90313 28.2159 6.14934 24.819 6.14934ZM14.5677 12.3001C14.5677 6.63848 19.1573 2.04883 24.819 2.04883C30.4806 2.04883 35.0702 6.63848 35.0702 12.3001C35.0702 17.9617 30.4806 22.5514 24.819 22.5514C19.1573 22.5514 14.5677 17.9617 14.5677 12.3001ZM4.31641 45.1042C4.31641 33.781 13.4957 24.6016 24.819 24.6016C36.1422 24.6016 45.3215 33.781 45.3215 45.1042C45.3215 46.2365 44.4036 47.1544 43.2712 47.1544C42.1389 47.1544 41.221 46.2365 41.221 45.1042C41.221 36.0456 33.8775 28.7021 24.819 28.7021C15.7604 28.7021 8.41691 36.0456 8.41691 45.1042C8.41691 46.2365 7.49898 47.1544 6.36666 47.1544C5.23434 47.1544 4.31641 46.2365 4.31641 45.1042ZM24.819 32.8026C25.9513 32.8026 26.8692 33.7206 26.8692 34.8529V37.9283H29.9446C31.0769 37.9283 31.9948 38.8462 31.9948 39.9785C31.9948 41.1109 31.0769 42.0288 29.9446 42.0288H26.8692V45.1042C26.8692 46.2365 25.9513 47.1544 24.819 47.1544C23.6866 47.1544 22.7687 46.2365 22.7687 45.1042V42.0288H19.6933C18.561 42.0288 17.6431 41.1109 17.6431 39.9785C17.6431 38.8462 18.561 37.9283 19.6933 37.9283H22.7687V34.8529C22.7687 33.7206 23.6866 32.8026 24.819 32.8026Z" fill="#222222"/>
</svg>
