<svg width="172" height="50" viewBox="0 0 172 50" fill="none" xmlns="http://www.w3.org/2000/svg">
<path d="M10.5477 46.5085C5.29209 46.5085 1.78836 43.6618 1.56938 39.1726H6.46C6.67898 41.3989 8.10237 42.5668 10.5112 42.5668C13.3215 42.5668 14.7814 41.0705 14.7814 38.2602V35.4134C13.7229 37.2748 11.7156 38.3697 9.34328 38.3697C4.56215 38.3697 0.985424 34.3185 0.985424 28.8074C0.985424 23.1503 4.34316 19.2451 9.16079 19.2451C11.7886 19.2451 13.7594 20.2671 15.1828 22.2744V19.6101H19.818V38.1872C19.818 43.3698 16.3142 46.5085 10.5477 46.5085ZM6.05853 28.8074C6.05853 31.9827 7.7009 33.99 10.3287 33.99C12.993 33.99 14.7449 31.9097 14.7449 28.8439C14.7449 25.6686 12.993 23.6248 10.3287 23.6248C7.7374 23.6248 6.05853 25.6322 6.05853 28.8074ZM28.5935 39.0996H23.4839V12.8946H28.5935V39.0996Z" fill="#222222"/>
<path d="M77.3174 29.3549C77.3174 35.0484 73.9231 39.4646 68.6676 39.4646C66.1492 39.4646 64.0324 38.3332 62.536 36.2893V39.0996H57.8644V12.8946H62.9375V22.1284C64.3609 20.2306 66.3317 19.2451 68.6676 19.2451C73.9231 19.2451 77.3174 23.5883 77.3174 29.3549ZM72.0983 29.3549C72.0983 25.6322 70.0179 23.7343 67.5361 23.7343C65.0908 23.7343 62.974 25.5957 62.974 29.2819C62.974 32.9681 65.0178 34.9389 67.5361 34.9389C70.0179 34.9389 72.0983 33.0046 72.0983 29.3549ZM88.1231 39.4281C82.2836 39.4281 78.3784 35.3769 78.3784 29.2819C78.3784 23.4788 82.4296 19.2451 88.0501 19.2451C94.2181 19.2451 98.3058 24.2453 97.3934 30.5958H83.561C83.8894 33.771 85.4223 35.5229 88.0136 35.5229C90.2399 35.5229 91.7363 34.428 92.3203 32.4936H97.3569C96.262 36.9098 92.8677 39.4281 88.1231 39.4281ZM87.9406 22.9679C85.5683 22.9679 84.0719 24.5007 83.634 27.384H92.0283C91.8823 24.6832 90.3494 22.9679 87.9406 22.9679ZM104.952 39.0996H99.8789V19.6101H104.551V22.3839C105.974 20.4131 107.799 19.2451 110.39 19.2451C113.054 19.2451 115.098 20.486 116.084 22.7124C117.617 20.559 119.587 19.2451 122.507 19.2451C126.449 19.2451 129.113 21.8364 129.113 26.5081V39.0996H124.077V28.114C124.077 25.3767 122.909 23.7343 120.682 23.7343C118.675 23.7343 117.033 25.3037 117.033 28.2235V39.0996H111.996V28.114C111.996 25.3767 110.828 23.7343 108.602 23.7343C106.558 23.7343 104.952 25.3037 104.952 28.2235V39.0996ZM141.008 39.4281C135.169 39.4281 131.264 35.3769 131.264 29.2819C131.264 23.4788 135.315 19.2451 140.935 19.2451C147.103 19.2451 151.191 24.2453 150.279 30.5958H136.446C136.775 33.771 138.308 35.5229 140.899 35.5229C143.125 35.5229 144.622 34.428 145.206 32.4936H150.242C149.147 36.9098 145.753 39.4281 141.008 39.4281ZM140.826 22.9679C138.454 22.9679 136.957 24.5007 136.519 27.384H144.914C144.768 24.6832 143.235 22.9679 140.826 22.9679ZM160.875 39.4281C155.036 39.4281 151.13 35.3769 151.13 29.2819C151.13 23.4788 155.182 19.2451 160.802 19.2451C166.97 19.2451 171.058 24.2453 170.145 30.5958H156.313C156.641 33.771 158.174 35.5229 160.766 35.5229C162.992 35.5229 164.488 34.428 165.072 32.4936H170.109C169.014 36.9098 165.62 39.4281 160.875 39.4281ZM160.693 22.9679C158.32 22.9679 156.824 24.5007 156.386 27.384H164.78C164.634 24.6832 163.101 22.9679 160.693 22.9679Z" fill="#222222"/>
<path opacity="0.88" fill-rule="evenodd" clip-rule="evenodd" d="M44.43 37.5751C48.982 37.5751 52.6722 33.5368 52.6722 28.5552C52.6722 28.2427 52.6577 27.9339 52.6293 27.6297L51.0224 30.1037C50.9081 30.2798 50.64 30.2414 50.5797 30.0403L50.154 28.6211C45.5434 30.9482 40.6731 31.355 36.901 31.167C36.7772 31.1609 36.6546 31.1541 36.5331 31.1466C37.5505 34.8652 40.7011 37.5751 44.43 37.5751ZM36.1883 28.6456C36.9265 28.7508 37.7581 28.8455 38.6569 28.9093C41.2208 29.0911 44.2908 29.0176 47.2902 28.2445C47.9469 28.0325 48.6015 27.7829 49.2485 27.4907L49.2485 27.4906C49.3669 27.4371 49.4851 27.3822 49.603 27.3258L48.47 25.8944C48.3386 25.7284 48.4638 25.4849 48.6753 25.4953L52.2416 25.6702C51.1421 22.1034 48.0601 19.5352 44.43 19.5352C40.0859 19.5352 36.1579 23.1488 36.1602 27.8701L49.2485 27.4907L36.1602 27.8701C36.1603 28.096 36.1694 28.3244 36.1879 28.5552C36.1879 28.5853 36.188 28.6155 36.1883 28.6456Z" fill="#FFB956"/>
<path fill-rule="evenodd" clip-rule="evenodd" d="M33.4196 27.9509C33.9427 22.9991 38.132 19.1406 43.2225 19.1406C47.5036 19.1406 51.1473 21.8696 52.5089 25.6828L49.0268 25.512C48.891 25.274 48.722 25.0366 48.555 24.8021C48.3561 24.5228 48.1601 24.2475 48.0263 23.9797C47.8766 23.6799 47.8191 23.5126 47.7663 23.3587C47.7034 23.1755 47.647 23.0112 47.4491 22.6648C47.426 22.6245 47.3895 22.5815 47.3521 22.5373C47.2332 22.3973 47.105 22.2463 47.3693 22.136C47.3867 22.1287 47.4055 22.1243 47.4241 22.1219L47.6296 22.0957C47.7667 22.0784 47.8115 21.8992 47.6944 21.8259C46.7583 21.2398 45.7183 20.8457 44.6236 20.6641C44.5347 20.6493 44.4547 20.7186 44.4547 20.8087V21.0057C44.4547 21.0237 44.4581 21.0417 44.4645 21.0586L44.5877 21.3802C44.6091 21.4362 44.5947 21.4995 44.5511 21.5406L44.0337 22.0286C43.9945 22.0656 43.9382 22.0783 43.8869 22.0618L43.5941 21.9674C43.571 21.96 43.5501 21.947 43.5333 21.9296L43.0886 21.4711L42.6411 20.94C42.6255 20.9215 42.6056 20.9071 42.5831 20.8981L41.9871 20.6586C41.9627 20.6488 41.9361 20.6456 41.9101 20.6496C41.2209 20.7561 40.5478 20.9483 39.9065 21.2217C39.8449 21.2479 39.8101 21.3128 39.8184 21.3792L39.819 21.3838C39.8319 21.4885 39.9414 21.5609 40.0407 21.5251C40.1474 21.4867 40.2565 21.4506 40.3656 21.4146C40.5466 21.3547 40.7277 21.2948 40.8978 21.224C41.0043 21.1796 41.2969 21.3981 41.4914 21.5434L41.4977 21.5481C41.5705 21.6025 41.5821 21.7091 41.5136 21.7689C41.4501 21.8243 41.3733 21.8869 41.2918 21.9533C41.0015 22.19 40.6511 22.4756 40.626 22.6612C40.6191 22.7121 40.6836 22.7769 40.7551 22.8487C40.8393 22.9333 40.9331 23.0276 40.9317 23.1205L40.9243 23.611C40.9224 23.7381 41.064 23.8007 41.1542 23.711C41.1947 23.6707 41.2382 23.6273 41.2831 23.5823C41.5635 23.3021 41.9022 22.9636 41.9593 22.9489C42.5624 22.7932 43.5892 23.7908 43.6772 24.1429C43.7415 24.3997 43.166 24.8791 42.6482 25.3103C42.4562 25.4703 42.2722 25.6236 42.1316 25.7565C42.0164 25.8655 41.8694 25.961 41.7244 26.0553C41.3684 26.2867 41.0246 26.5102 41.1931 26.9047C41.2026 26.927 41.217 26.9581 41.2344 26.9959C41.3129 27.166 41.4542 27.4718 41.4974 27.7168L40.8217 27.7364C40.7692 27.6721 40.7225 27.6095 40.6847 27.5587C40.6576 27.5224 40.6351 27.4922 40.6182 27.4718C40.3224 27.1135 39.768 27.1364 39.2631 27.1572C39.1644 27.1613 39.0675 27.1653 38.9749 27.1664C38.8911 27.1673 38.8215 27.2344 38.8214 27.3182C38.8211 27.4837 38.8215 27.6421 38.8296 27.7941L37.5494 27.8312C37.4993 27.6932 37.4382 27.5627 37.3584 27.4477C36.7482 26.5681 36.7972 25.8985 36.8695 24.9112C36.8754 24.8306 36.8815 24.7479 36.8873 24.6628C36.9014 24.4584 36.8699 24.2002 36.8372 23.9321C36.8347 23.9112 36.8321 23.8903 36.8296 23.8694C36.8138 23.7389 36.6484 23.6878 36.5672 23.7911C35.6273 24.9874 35.0348 26.4019 34.8419 27.9097L33.4196 27.9509ZM33.4196 27.951C33.4133 28.0104 33.4076 28.07 33.4023 28.1298C33.6653 28.1915 34.0042 28.2663 34.4083 28.3459C34.5305 28.3699 34.6586 28.3944 34.7923 28.4191C34.8038 28.2483 34.8204 28.0784 34.8419 27.9098L33.4196 27.951ZM37.5494 27.8313C37.617 28.0176 37.6645 28.2177 37.7107 28.4125C37.7406 28.5385 37.77 28.6622 37.8039 28.7784C37.8102 28.8 37.8175 28.821 37.8256 28.8416C38.0956 28.8673 38.3731 28.8905 38.6574 28.9107C38.8511 28.9244 39.0478 28.9367 39.2471 28.9473C38.9379 28.6039 38.8527 28.2248 38.8296 27.7941L37.5494 27.8313ZM40.8217 27.7364C41.003 27.9588 41.2525 28.2017 41.4401 28.045C41.5144 27.9829 41.5227 27.8603 41.4974 27.7168L40.8217 27.7364ZM43.843 30.7267C42.7385 30.9339 41.6549 31.0641 40.6114 31.1358C40.6757 31.1797 40.7405 31.2225 40.8059 31.2641C40.831 31.2801 40.8556 31.2957 40.8797 31.3109C41.3123 31.5843 41.5723 31.7486 41.4402 32.2991C41.4197 32.3846 41.4019 32.464 41.385 32.5393C41.3095 32.8761 41.2525 33.1306 41.0549 33.4709C40.9811 33.5979 41.3334 34.4149 41.4506 34.5321C41.806 34.8874 42.1586 35.2134 42.546 35.5333C42.9914 35.9013 42.7439 36.3511 42.4695 36.8498C42.3921 36.9905 42.3125 37.1352 42.2458 37.283C42.2182 37.344 42.155 37.3818 42.0887 37.373C40.2615 37.1294 38.5732 36.2988 37.2477 34.9733C36.1395 33.8652 35.3771 32.5035 35.0146 31.0191C34.4883 30.963 33.9931 30.8977 33.5341 30.8281C34.3918 35.3983 38.4033 38.8565 43.2225 38.8565C48.6669 38.8565 53.0804 34.4429 53.0804 28.9985C53.0804 28.3813 53.0237 27.7773 52.9152 27.1915L51.5247 29.3324C51.5558 29.8795 51.5502 30.5454 51.4139 31.0846C51.0451 32.5435 50.2891 33.8815 49.1973 34.9733C48.0478 36.1229 46.6253 36.8998 45.076 37.2449C44.9618 37.2703 44.8701 37.1574 44.923 37.0531C45.1646 36.5764 45.5176 36.163 45.8484 35.9079C46.1848 35.6484 46.606 35.1492 46.7817 34.7538C46.9388 34.4005 47.1414 34.0893 47.3509 33.7677C47.3756 33.7298 47.4004 33.6917 47.4252 33.6534C47.76 33.1369 46.5996 32.3579 46.2236 32.1946C45.5035 31.882 44.9349 31.4764 44.318 31.0363C44.21 30.9593 44.1005 30.8812 43.9885 30.8024C43.9436 30.7709 43.8949 30.746 43.843 30.7267Z" fill="#222222"/>
</svg>
