<svg width="178" height="51" viewBox="0 0 178 51" fill="none" xmlns="http://www.w3.org/2000/svg">
<path d="M10.9291 47.6768C5.48346 47.6768 1.85303 44.7271 1.62613 40.0756H6.6936C6.9205 42.3825 8.39536 43.5926 10.8913 43.5926C13.8032 43.5926 15.3159 42.0421 15.3159 39.1302V36.1805C14.2192 38.1092 12.1392 39.2437 9.68114 39.2437C4.72712 39.2437 1.02106 35.046 1.02106 29.3356C1.02106 23.474 4.50022 19.4276 9.49206 19.4276C12.2149 19.4276 14.257 20.4864 15.7319 22.5664V19.8057H20.5346V39.0546C20.5346 44.4246 16.9042 47.6768 10.9291 47.6768ZM6.27761 29.3356C6.27761 32.6257 7.97938 34.7056 10.7022 34.7056C13.4628 34.7056 15.2781 32.5501 15.2781 29.3734C15.2781 26.0834 13.4628 23.9656 10.7022 23.9656C8.0172 23.9656 6.27761 26.0455 6.27761 29.3356ZM29.6275 40H24.3331V12.8474H29.6275V40Z" fill="white"/>
<path d="M80.4581 29.9029C80.4581 35.8023 76.9411 40.3782 71.4955 40.3782C68.8861 40.3782 66.6927 39.2058 65.1423 37.0881V40H60.3017V12.8474H65.5582V22.4151C67.0331 20.4486 69.0752 19.4276 71.4955 19.4276C76.9411 19.4276 80.4581 23.9278 80.4581 29.9029ZM75.0503 29.9029C75.0503 26.0455 72.8947 24.0791 70.3232 24.0791C67.7894 24.0791 65.5961 26.0077 65.5961 29.8272C65.5961 33.6468 67.7138 35.6889 70.3232 35.6889C72.8947 35.6889 75.0503 33.6846 75.0503 29.9029ZM91.6546 40.3404C85.6039 40.3404 81.5575 36.1427 81.5575 29.8272C81.5575 23.8143 85.7552 19.4276 91.579 19.4276C97.97 19.4276 102.206 24.6085 101.26 31.1886H86.9275C87.2678 34.4787 88.8561 36.2939 91.5411 36.2939C93.848 36.2939 95.3985 35.1594 96.0035 33.1551H101.222C100.088 37.731 96.5708 40.3404 91.6546 40.3404ZM91.4655 23.2849C89.0074 23.2849 87.4569 24.8732 87.0031 27.8608H95.701C95.5497 25.0623 93.9614 23.2849 91.4655 23.2849ZM109.092 40H103.835V19.8057H108.676V22.6798C110.151 20.6377 112.042 19.4276 114.727 19.4276C117.487 19.4276 119.605 20.7134 120.626 23.0202C122.215 20.789 124.257 19.4276 127.282 19.4276C131.366 19.4276 134.127 22.1126 134.127 26.9531V40H128.908V28.6171C128.908 25.7808 127.698 24.0791 125.391 24.0791C123.311 24.0791 121.609 25.7052 121.609 28.7305V40H116.391V28.6171C116.391 25.7808 115.181 24.0791 112.874 24.0791C110.756 24.0791 109.092 25.7052 109.092 28.7305V40ZM146.452 40.3404C140.402 40.3404 136.355 36.1427 136.355 29.8272C136.355 23.8143 140.553 19.4276 146.377 19.4276C152.768 19.4276 157.003 24.6085 156.058 31.1886H141.725C142.065 34.4787 143.654 36.2939 146.339 36.2939C148.646 36.2939 150.196 35.1594 150.801 33.1551H156.02C154.885 37.731 151.368 40.3404 146.452 40.3404ZM146.263 23.2849C143.805 23.2849 142.255 24.8732 141.801 27.8608H150.499C150.347 25.0623 148.759 23.2849 146.263 23.2849ZM167.037 40.3404C160.987 40.3404 156.94 36.1427 156.94 29.8272C156.94 23.8143 161.138 19.4276 166.962 19.4276C173.353 19.4276 177.588 24.6085 176.643 31.1886H162.31C162.651 34.4787 164.239 36.2939 166.924 36.2939C169.231 36.2939 170.781 35.1594 171.386 33.1551H176.605C175.471 37.731 171.954 40.3404 167.037 40.3404ZM166.848 23.2849C164.39 23.2849 162.84 24.8732 162.386 27.8608H171.084C170.933 25.0623 169.344 23.2849 166.848 23.2849Z" fill="white"/>
<path opacity="0.88" fill-rule="evenodd" clip-rule="evenodd" d="M45.9179 40.0888C50.5848 40.0888 54.368 35.9486 54.368 30.8413C54.368 30.5216 54.3532 30.2057 54.3243 29.8944L52.6771 32.4305C52.5599 32.611 52.285 32.5716 52.2232 32.3655L51.7866 30.9101C47.0594 33.2964 42.0657 33.7135 38.1982 33.5208C38.0717 33.5145 37.9464 33.5075 37.8223 33.5C38.8659 37.3114 42.0955 40.0888 45.9179 40.0888ZM37.4683 30.937C38.2251 31.0448 39.0775 31.1419 39.9988 31.2072C42.6212 31.3932 45.76 31.3187 48.8282 30.5313C49.6322 30.2728 50.4333 29.9593 51.2215 29.5822L50.0602 28.115C49.9255 27.9448 50.054 27.6951 50.2707 27.7058L53.9271 27.8852C52.8003 24.2276 49.6402 21.5938 45.9179 21.5938C41.2511 21.5938 37.0527 25.6617 37.4679 30.8413C37.4679 30.8732 37.468 30.9051 37.4683 30.937Z" fill="#FFB956"/>
<path fill-rule="evenodd" clip-rule="evenodd" d="M34.6113 30.4051C35.0615 25.2397 39.3972 21.1875 44.6794 21.1875C49.0692 21.1875 52.8054 23.9863 54.2008 27.8968L50.6313 27.7217C50.4919 27.477 50.3181 27.2329 50.1464 26.9918C49.9425 26.7055 49.7415 26.4233 49.6043 26.1486C49.4508 25.8413 49.3919 25.6698 49.3378 25.512C49.2733 25.3241 49.2155 25.1557 49.0126 24.8006C48.9889 24.7593 48.9515 24.7151 48.9131 24.6699C48.7912 24.5263 48.6599 24.3715 48.9308 24.2584C48.9486 24.251 48.9678 24.2464 48.987 24.244L49.1977 24.2171C49.3382 24.1994 49.3841 24.0157 49.2641 23.9405C48.3044 23.3396 47.2381 22.9356 46.1158 22.7494C46.0247 22.7343 45.9427 22.8053 45.9427 22.8976V23.0996C45.9427 23.1181 45.9461 23.1365 45.9527 23.1538L46.079 23.4836C46.101 23.5409 46.0862 23.6059 46.0415 23.6481L45.511 24.1483C45.4708 24.1862 45.4131 24.1993 45.3605 24.1823L45.0603 24.0856C45.0367 24.078 45.0153 24.0647 44.998 24.0469L44.5421 23.5768L44.0833 23.0323C44.0673 23.0133 44.0469 22.9985 44.0239 22.9893L43.4128 22.7437C43.3878 22.7337 43.3605 22.7304 43.3339 22.7346C42.6273 22.8437 41.9372 23.0408 41.2797 23.3211C41.2166 23.348 41.1809 23.4145 41.1894 23.4826L41.19 23.4873C41.2032 23.5946 41.3155 23.6689 41.4173 23.6322C41.5267 23.5927 41.6385 23.5558 41.7504 23.5188C41.936 23.4574 42.1216 23.3961 42.296 23.3234C42.4052 23.2779 42.7052 23.502 42.9046 23.6509L42.9111 23.6557C42.9857 23.7115 42.9976 23.8208 42.9274 23.882C42.8622 23.9389 42.7835 24.003 42.6999 24.0712C42.4023 24.3138 42.0431 24.6066 42.0173 24.7969C42.0103 24.8491 42.0764 24.9155 42.1497 24.9891C42.236 25.0758 42.3322 25.1725 42.3308 25.2678L42.3232 25.7706C42.3212 25.901 42.4664 25.9652 42.5588 25.8732C42.6004 25.8318 42.6449 25.7873 42.691 25.7413C42.9785 25.4539 43.3257 25.1069 43.3843 25.0918C44.0026 24.9322 45.0553 25.955 45.1456 26.3159C45.2114 26.5792 44.6214 27.0707 44.0906 27.5129C43.8938 27.6768 43.7051 27.834 43.561 27.9702C43.4429 28.082 43.2921 28.18 43.1434 28.2766C42.7785 28.5139 42.426 28.743 42.5988 29.1475C42.6085 29.1703 42.6232 29.2022 42.6411 29.241C42.7688 29.5175 43.0582 30.1442 42.852 30.3165C42.6041 30.5237 42.2505 30.0499 42.0775 29.818C42.0498 29.7808 42.0267 29.7498 42.0094 29.7288C41.7061 29.3615 41.1377 29.385 40.6201 29.4063C40.5188 29.4105 40.4196 29.4146 40.3246 29.4157C40.2387 29.4167 40.1674 29.4855 40.1672 29.5714C40.1662 30.2226 40.1749 30.7663 40.6049 31.243C40.3996 31.2321 40.197 31.2194 39.9973 31.2053C39.7067 31.1847 39.423 31.1609 39.1469 31.1346C39.1383 31.1131 39.1307 31.0911 39.1241 31.0685C39.0893 30.9493 39.0592 30.8224 39.0285 30.6932C38.9461 30.3456 38.8596 29.9811 38.6673 29.7042C38.0417 28.8024 38.092 28.1158 38.1661 27.1037C38.1721 27.021 38.1784 26.9362 38.1844 26.8489C38.1988 26.6394 38.1665 26.3747 38.133 26.0998C38.1304 26.0785 38.1278 26.057 38.1252 26.0355C38.109 25.9018 37.9394 25.8493 37.8562 25.9553C36.7844 27.3193 36.1533 28.9603 36.0364 30.7016C35.8987 30.6762 35.7668 30.651 35.6411 30.6262C35.4603 30.5907 35.2924 30.556 35.138 30.523C34.9392 30.4804 34.763 30.4406 34.6113 30.4051ZM34.7469 33.172C35.6271 37.8564 39.7393 41.4007 44.6794 41.4007C50.2611 41.4007 54.786 36.8758 54.786 31.2941C54.786 30.6601 54.7276 30.0398 54.6159 29.4382L53.1908 31.6324C53.2229 32.1941 53.2174 32.8786 53.0774 33.4328C52.6993 34.9285 51.9242 36.3002 50.8049 37.4196C49.6264 38.5982 48.168 39.3947 46.5796 39.7485C46.4625 39.7745 46.3685 39.6588 46.4227 39.5518C46.6705 39.0631 47.0323 38.6393 47.3715 38.3778C47.7164 38.1117 48.1483 37.5999 48.3284 37.1945C48.4894 36.8324 48.6972 36.5133 48.9119 36.1836C48.9372 36.1447 48.9626 36.1057 48.9881 36.0664C49.3314 35.5368 48.1417 34.7382 47.7562 34.5708C47.0179 34.2503 46.435 33.8345 45.8025 33.3833C45.6918 33.3043 45.5795 33.2243 45.4647 33.1435C45.4194 33.1116 45.3703 33.0864 45.3179 33.0668C44.1855 33.2795 43.0745 33.4131 42.0046 33.4868C42.0698 33.5312 42.1355 33.5746 42.2018 33.6168C42.2275 33.6332 42.2528 33.6492 42.2775 33.6648C42.721 33.9451 42.9875 34.1135 42.8521 34.678C42.831 34.7655 42.8128 34.847 42.7955 34.9242C42.7181 35.2695 42.6596 35.5304 42.457 35.8792C42.3814 36.0095 42.7426 36.8471 42.8628 36.9673C43.2271 37.3315 43.5886 37.6657 43.9858 37.9937C44.4424 38.371 44.1887 38.8321 43.9074 39.3434C43.828 39.4877 43.7464 39.636 43.678 39.7876C43.6498 39.8501 43.5849 39.8889 43.517 39.8798C41.6437 39.6301 39.9127 38.7785 38.5538 37.4196C37.4182 36.284 36.6367 34.8887 36.2648 33.3677C35.7253 33.3102 35.2176 33.2433 34.7469 33.172Z" fill="white"/>
</svg>
