<svg width="418" height="419" viewBox="0 0 418 419" fill="none" xmlns="http://www.w3.org/2000/svg">
<path opacity="0.88" d="M342.968 48.6507C254.422 -25.163 122.728 -13.128 48.8209 75.5301C-25.0862 164.188 -13.2203 295.897 75.3259 369.711C163.871 443.524 295.566 431.49 369.473 342.831C443.38 254.173 431.513 122.464 342.968 48.6507ZM78.6611 331.939C51.2829 302.934 34.5037 265.837 30.8662 225.472C26.5752 177.845 41.0858 131.377 71.7244 94.6229C99.3057 61.5367 136.987 39.8994 178.973 32.733C174.04 39.7624 169.517 47.9359 164.972 52.6848C148.398 69.9956 137.008 79.9802 134.828 104.423C133.979 113.944 127.795 123.452 124.009 132.133C120.303 140.626 125.269 150.841 127.245 159.624C131.23 177.347 133.586 196.049 139.089 213.31C142.72 224.703 145.512 231.191 135.354 238.765C127.184 244.855 122.766 249.119 113.181 252.621C110.256 253.69 104.897 271.77 105.212 275.269C106.168 285.873 107.478 295.962 109.435 306.423C112.466 322.644 92.9985 324.21 78.6611 331.939ZM225.211 387.481C188.962 390.794 153.403 383.196 122.292 365.889C133.959 359.635 147.722 356.91 158.059 357.297C167.053 357.631 180.681 355.213 188.906 351.156C197.122 347.106 205.551 344.684 214.308 341.962C226.766 338.09 218.469 309.672 214.57 301.915C205.795 284.461 202.164 267.753 197.117 248.94C193.521 235.538 168.039 230.134 161.786 217.634C153.222 200.511 150.654 181.02 146.304 162.425C141.816 143.236 151.257 133.098 162.465 119.653C171.641 127.894 187.586 136.148 187.517 149.01C187.495 153.069 185.355 169.501 193.103 169.488C199.433 169.476 203.368 151.556 204.565 147.57C208.244 135.313 223.831 142.33 235.416 141.596C250.532 140.64 279.111 143.202 282.458 136.274C285.806 129.347 282.647 99.1808 270.726 93.5389C268.94 92.6933 244.672 95.492 240.394 95.5392C244.157 91.1598 247.92 86.7812 251.684 82.4031C254.061 79.6385 251.198 72.3802 252.947 70.7779C257.369 66.7277 276.963 69.0219 283.15 68.018C282.092 64.7907 279.956 52.0103 276.878 51.0588C269.425 48.7567 261.854 45.1406 254.402 42.8378C256.002 40.9176 257.273 38.9199 258.481 36.9074C273.728 41.2579 288.32 47.636 301.867 55.8709L309.081 69.2889L309.154 84.7862L310.22 99.0605L315.108 106.792L334.089 105.616L337.319 96.1734L342.684 89.7375C361.142 110.302 374.437 134.683 381.724 161.263C378.384 158.951 374.587 156.562 370.325 153.84C369.518 151.572 367.833 149.442 366.644 147.341C362.644 162.374 358.985 177.439 355.405 192.58C351.581 208.754 354.008 231.544 346.176 245.453C336.944 261.847 324.366 273.244 311.858 291.159C299.812 308.411 301.313 340.674 301.313 340.674C301.313 340.674 306.85 349.762 314.05 354.207C288.248 372.965 257.789 384.503 225.211 387.481Z" fill="#FFB956" fill-opacity="0.22"/>
</svg>
